<svg width="59" height="23" viewBox="0 0 59 23" fill="none" xmlns="http://www.w3.org/2000/svg"> <path d="M8.18831 5.74751C7.84459 5.74848 7.51527 5.88886 7.27256 6.13785C7.02985 6.38684 6.89355 6.72413 6.89355 7.07577V8.18266L13.6108 8.17159V5.73828L8.18831 5.74751Z" fill="#3576ED"></path> <path d="M6.90257 15.6311C6.90257 16.3691 7.48503 16.8653 8.20094 16.8653H9.28292L9.26669 10.4805H6.89355L6.90257 15.6311Z" fill="#3576ED"></path> <path d="M18.2252 6.97635C18.2252 6.23844 17.6428 5.74219 16.9287 5.74219H15.8467V12.1418H18.2198L18.2252 6.97635Z" fill="#3576ED"></path> <path d="M18.2258 14.4355H11.5176V16.867H16.9401C17.1102 16.867 17.2788 16.8327 17.436 16.766C17.5932 16.6993 17.736 16.6016 17.8562 16.4784C17.9765 16.3552 18.0718 16.209 18.1368 16.048C18.2017 15.8871 18.2351 15.7147 18.2348 15.5406L18.2258 14.4355Z" fill="#3576ED"></path> <path d="M15.5026 0H9.55173C3.60989 0 0.654297 3.68959 0.654297 11.3031C0.654297 18.9165 3.61891 22.5766 9.55533 22.5766H15.5062C21.4444 22.5766 24.4036 18.9036 24.4036 11.3031C24.4036 3.7025 21.4408 0 15.5026 0ZM15.0572 20.1986C12.3775 20.1986 15.0572 20.2097 15.0572 20.2097H9.98452C9.98452 20.2097 12.6642 20.1986 9.98452 20.1986C3.60087 20.1986 3.6189 16.308 3.6189 11.3086C3.6189 6.3092 3.60087 2.39639 9.98993 2.39639H15.0626C21.4462 2.39639 21.4336 6.3092 21.4336 11.3086C21.4336 16.308 21.4462 20.1931 15.0626 20.1931L15.0572 20.1986Z" fill="#3576ED"></path> <path d="M30.4414 18.7192V6.05469H33.3736V18.7247L30.4414 18.7192Z" fill="#171923"></path> <path d="M40.8861 19.0557C37.2795 19.0557 35.2959 17.1647 35.2959 13.1523V11.6064C35.2959 7.62345 37.2795 5.73438 40.8861 5.73438C44.4927 5.73438 46.4763 7.62345 46.4763 11.6064V13.1597C46.4745 17.1647 44.4945 19.0557 40.8861 19.0557ZM43.591 11.6064C43.591 9.17677 42.7759 8.28573 40.8861 8.28573C38.9962 8.28573 38.1812 9.18599 38.1812 11.6064V13.1597C38.1812 15.5893 38.9944 16.5117 40.8861 16.5117C42.7777 16.5117 43.591 15.5893 43.591 13.1597V11.6064Z" fill="#171923"></path> <path d="M56.0561 18.7184V10.6843C56.0561 8.86163 55.7477 8.23256 54.3177 8.23256C53.4828 8.23256 52.3828 8.54617 51.0718 9.0867V18.7184H48.1865V6.05386H50.9582V7.06665C52.2998 6.27892 53.6415 5.74025 55.0282 5.74025C58.5194 5.73471 58.9792 7.80457 58.9792 10.6843V18.7184H56.0561Z" fill="#171923"></path> <path d="M33.4014 1.44922H30.4043V4.28281H33.4014V1.44922Z" fill="#171923"></path> </svg>