<svg xmlns="http://www.w3.org/2000/svg" width="367" height="117" overflow="hidden"><defs><clipPath id="A"><path d="M577 73h367v117H577z" fill-rule="evenodd" clip-rule="evenodd"/></clipPath></defs><g clip-path="url(#A)" transform="translate(-577 -73)" fill-rule="evenodd"><path d="M667.948 137.78l-38.636-28.924c-2.007-1.507-4.817-1.507-6.824 0l-17.562 13.156c-3.11 2.3-7.326 2.3-10.437 0l-4.717-3.515c-3.412-2.61-4.115-7.432-1.505-10.847.4-.602 1.003-1.104 1.505-1.506l30.608-22.9c3.312-2.4 7.828-2.4 11.14 0l30.608 22.9c3.412 2.51 4.114 7.432 1.605 10.847-.4.602-1.003 1.104-1.605 1.607l6.623 5.02c6.222-5.222 7.025-14.462 1.806-20.588-.702-.904-1.505-1.608-2.408-2.31l-33.117-24.706c-5.32-4.017-12.645-4.017-17.964 0l-33.116 24.706c-6.423 4.82-7.828 13.96-2.91 20.49.803 1.105 1.807 2.11 2.91 2.912l38.736 28.925c2.007 1.507 4.817 1.507 6.824 0l17.562-13.157c3.11-2.3 7.326-2.3 10.437 0l4.717 3.516c3.412 2.5 4.115 7.33 1.606 10.746-.402.602-1.004 1.105-1.606 1.607l-30.608 22.898c-3.312 2.41-7.828 2.41-11.14 0l-30.61-22.898c-3.412-2.51-4.114-7.432-1.505-10.847.402-.603 1.004-1.105 1.505-1.506l-6.623-5.022c-6.222 5.222-7.025 14.462-1.806 20.59.702.903 1.505 1.607 2.408 2.3l33.117 24.706c5.32 4.017 12.645 4.017 17.964 0l33.117-24.706c6.422-4.82 7.827-13.96 3-20.49-1.003-1.105-2.007-2.11-3.11-3.013zm-43.855 6.428L606.33 130.95l17.762-13.257c1.004-.703 2.41-.703 3.412 0l17.763 13.257-17.763 13.257c-1.003.803-2.408.803-3.412 0z" fill="#ff4835"/><g fill="#fff"><path d="M762 95v72h-10V95h10zm13 21h9v51h-9zm69-21v71.998h-9.66v-7.9c-3.785 5.092-9.76 7.988-16.136 7.9-14.143 0-24.203-11.184-24.203-25.065s10.06-25.064 24.203-25.064c6.375-.1 12.35 2.796 16.136 7.9V95H844zm-9.66 46.933c0-8.488-6.873-15.378-15.34-15.378s-15.34 6.9-15.34 15.378 6.873 15.378 15.34 15.378c8.466-.1 15.34-7 15.34-15.378h0zM904 141.5c0 14.122-11.155 25.5-25 25.5s-25-11.378-25-25.5 11.155-25.5 25-25.5 25 11.38 25 25.5h0zm-9.76 0c0-8.635-6.872-15.645-15.34-15.645s-15.338 7-15.338 15.645 6.872 15.646 15.338 15.646c8.467-.102 15.34-7.112 15.34-15.646zM943 116v10.77c-2.9-.813-5.98-.6-8.87.406-6.378 2.44-10.464 7.925-10.464 16.966V167H914v-51h9.667v11.48C926.955 120.368 933.93 116 943 116zm-216.32 20.958c-11.32-2.794-13.565-4.092-13.565-7.186 0-3.592 3.876-5.888 9.485-5.688 5.915.3 9.8 2.994 10.607 7.485h9.688c0-1.098-.102-2.096-.408-3.194h0C740.653 120.8 733.004 116 722.5 116c-11.218 0-18.765 5.6-18.765 14.172 0 6.886 4.18 10.38 16.623 13.573 11.32 2.994 12.953 3.892 12.953 7.584 0 3.992-3.468 6.587-9.383 6.587-6.425 0-11.015-3.094-12.136-7.984H702c0 .898.204 1.896.5 2.795l.612 1.996c2.753 7.185 9.994 11.277 20.193 11.277 12.238 0 19.683-5.7 19.683-14.97.102-7.385-4.18-10.978-16.317-14.072zM785 100.5a5.5 5.5 0 1 1-11 0 5.5 5.5 0 1 1 11 0z"/></g></g></svg>