<svg xmlns="http://www.w3.org/2000/svg" width="75" height="23" fill="#120d21" xmlns:v="https://vecta.io/nano"><path d="M59.816 18.531H14.861l3.581 3.581 41.374-3.581zM19.027 4.047v.537c-.834-.537-1.583-.842-2.607-.842-3.149 0-5.55 2.865-5.55 6.399s2.394 6.399 5.551 6.399c1.024 0 1.773-.31 2.607-.842v.537h2.77V4.047h-2.77zm-2.607 9.561c-1.554 0-2.686-1.529-2.686-3.461s1.137-3.459 2.686-3.459 2.65 1.529 2.65 3.459-1.096 3.461-2.65 3.461zm24.784-9.562v7.162c0 1.345-.924 2.48-2.269 2.48s-2.268-1.133-2.268-2.476V4.05h-2.768v7.162c0 2.942 2.011 5.334 4.951 5.334a4.25 4.25 0 0 0 2.354-.754v.453h2.763V4.046h-2.763zm25.797 12.199V9.083c0-1.345.922-2.48 2.269-2.48s2.27 1.132 2.27 2.476v7.162h2.77V9.08c0-2.94-2.013-5.332-4.953-5.332a4.25 4.25 0 0 0-2.356.75v-.451h-2.77v12.198h2.77zm-64.104 0V11.52h2.046l3.547 4.725h3.624L7.83 10.542c.908-.645 1.588-1.563 1.941-2.62a5.25 5.25 0 0 0 .021-3.26c-.339-1.061-1.006-1.988-1.906-2.645s-1.985-1.011-3.1-1.011H0v15.239h2.897zm0-12.345h1.889a2.36 2.36 0 0 1 2.362 2.362 2.36 2.36 0 0 1-2.362 2.362H2.897V3.9zm48.538 9.458c-.272.191-.595.296-.928.301-.451 0-1.303-.345-1.303-1.497V6.941h2.367V4.046h-2.367V1.002h-2.77v3.044h-1.465v2.895h1.465v5.255c0 2.725 2.052 4.351 4.118 4.351a5.71 5.71 0 0 0 2.709-.766l-1.826-2.423zM28.679 9.765l4.748-5.719h-3.88l-3.321 4.251V0h-2.852v16.245h2.852v-5.01l4.082 5.01h3.88l-5.509-6.48zm29.15-6.028c-3.203 0-5.502 2.816-5.502 6.41 0 3.778 2.884 6.41 5.778 6.41 1.459 0 3.33-.501 4.902-2.732l-2.446-1.411c-1.891 2.788-5.042 1.373-5.405-1.414h7.969c.688-4.379-2.148-7.262-5.296-7.262zm2.417 4.834H55.26c.582-2.856 4.447-3.021 4.986 0z"/></svg>