<svg xmlns="http://www.w3.org/2000/svg" width="84" height="28" fill="none" xmlns:v="https://vecta.io/nano"><path d="M70.185 23.877l-.259.235c-.37.336-.75.696-1.208.516-.064-.035-.119-.086-.16-.147s-.068-.132-.077-.205c-.021-.962.405-1.854.818-2.722l.106-.227c1.187-2.018 2.568-4.396 4.595-6.047a1.14 1.14 0 0 1 .512-.3c.194-.053.397-.052.591.001a.59.59 0 0 1 .195.385.65.65 0 0 1-.065.211l-1.63 2.848c-.99 1.909-2.134 3.733-3.416 5.453l-.001-.001zm-10.983-4.756c-.841-.193-1.503-.853-1.709-1.705-.225-1.112.527-1.98 1.255-2.417a1.25 1.25 0 0 1 .539-.244 1.24 1.24 0 0 1 .589.032c.3.251.453.641.407 1.033-.006.257-.027.513-.063.767l-.007.056c-.23.867-.568 1.701-1.008 2.48l-.002-.001zm-5.23 5.25c-.13-.206-.196-.447-.191-.692-.027-1.534 1.596-4.281 2.738-5.777h.003a4.48 4.48 0 0 0 2.221 2.046c-.815 1.846-3.607 5.8-4.771 4.424zm19.763.272c-.271.188-.652.043-.51-.385.355-1.095 1.764-3.326 1.764-3.326l3.927-7.09h-2.688l-.401.705a3.74 3.74 0 0 0-.652-.784c-.657-.423-1.621-.222-2.286.16-2.892 1.721-5.001 5.122-6.666 7.774 0 0-1.751 2.95-2.724 3.167-.759.062-.68-.978-.648-1.221.339-1.71.897-3.367 1.662-4.928a37.34 37.34 0 0 0 4.439-3.692c3.143-3.059 5.794-6.525 6.181-7.299-.302.057-.607.091-.914.102-2.418 3.434-7.367 8.426-8.868 9.168.665-1.627 4.959-9.395 8.614-13.111l.575-.564c.889-.884 1.81-1.796 2.528-1.94.076-.008.173 0 .258.18-.004.629-.18 1.243-.508 1.776l-.405.845c.32-.062.637-.14.95-.235.437-.837.921-1.776.742-2.895-.05-.349-.31-.628-.65-.696-1.092-.211-2.278.61-3.234 1.275l-.039.024c-4.914 3.92-9.064 9.568-12.692 17.281-.263.203-1.279.446-1.452.328a12.67 12.67 0 0 0 1.035-2.855c.044-.314.07-.63.076-.947.057-.674-.226-1.331-.752-1.744-.34-.142-.707-.208-1.074-.194a2.56 2.56 0 0 0-1.058.272c-2.593 1.095-4.532 3.802-5.931 6.031-.752 1.416-1.502 2.933-1.709 4.67-.146 1.361.151 2.237.911 2.675.781.406 1.764-.016 2.152-.219 2.627-1.408 4.463-4.233 5.91-6.814a8.26 8.26 0 0 0 1.445-.188c.008 0 .018.003.025.009-.034.117-.343 1.056-.343 1.056-.917 2.736-1.341 4.6-.475 5.703 1.238 1.556 3.287-.054 4.956-2.181-.358 2.55.941 2.95 1.932 2.754 1.137-.312 2.404-1.549 2.992-2.181-.189.743-.137 2.074.897 2.206.709.133 1.239-.259 1.853-.596 2.202-1.22 4.838-5.287 5.522-6.463h-.897c-.973 1.497-2.21 3.463-3.767 4.39l-.004-.005zM39.815 9.455h2.52l1.422-2.352h-2.52l-1.422 2.352zm40.253-6.245c-1.921 1.112-3.913 1.83-6.324 1.582-.668.767-1.319 1.556-1.919 2.37 3.384.877 6.972-1.072 8.973-2.925A14.35 14.35 0 0 0 84 .012c-1.145 1.261-2.471 2.34-3.932 3.199v-.002zm-21.189-.596c-.401 4.678-3.973 7.424-4.857 7.643-.535.11-1.449-.132-.634-2.095 1.202-2.644 3.253-4.889 5.454-6.039a1.22 1.22 0 0 1 .036.492h0zm-6.959 11.79a1.58 1.58 0 0 0-.624-.677 1.54 1.54 0 0 0-.889-.207c-2.102.196-4.158 1.956-5.239 4.483a13.05 13.05 0 0 0-1.078 4.076c.977-1.134 2.167-2.057 3.501-2.714a7.44 7.44 0 0 1 1.26-3.09c.397-.603 1.193-1.572 2.085-1.314.78.266.504 2.465-.531 4.592a14.73 14.73 0 0 1-3.129 4.209c-1.05.908-2.604 2.003-3.963 1.158-.856-.516-1.293-1.596-1.2-2.989.409-3.951 2.176-7.314 4.704-11.147 2.607-3.56 5.48-7.213 9.351-9.161a2.58 2.58 0 0 1 1.05-.363 2.57 2.57 0 0 1 1.103.113s-3.633 2.034-5.365 5.797c-.441.955-1.053 2.245-.437 3.387.138.23.341.412.584.521s.512.14.772.089c2.123-.5 3.495-2.519 4.616-4.365.65-1.4 1.227-2.793 1.227-4.342 0-.188-.01-.438-.025-.626 1.014-.547 3.094.422 3.094.422 1.625.547 5.082 3.247 6.254 3.763a37.41 37.41 0 0 1 2.032-2.198l-.763-.479c-1.221-.759-2.512-1.479-3.783-2.19-1.947-1.168-4.305-1.39-6.429-.602l-.899.321c-.886-.984-2.341-.891-3.413-.624-3.855 1.127-7.434 3.872-11.271 8.637-2.821 3.731-4.571 6.954-5.504 10.138-.719 2.143-.937 5.296.817 7.166 1.492 1.587 3.47 1.244 4.868.673 3.027-1.518 5.747-4.789 7.103-8.551.328-1.119.69-2.699.126-3.904l-.005.001zm-33.553-3.63c-.005.016-.514 1.203-.514 1.203-.073.063-.19.031-.323 0l-.229-.039c-.655-.165-1.188-.648-1.425-1.29-.23-1.127.714-2.01 1.131-2.331.399-.282 1.021-.431 1.386-.141.215.28.324.63.307.986a5.45 5.45 0 0 1-.329 1.612l-.004.001zm-1.092 2.261s-.023.07-.034.094c-.003 0-1.157 1.916-1.157 1.916-.697.947-1.567 2.138-2.654 2.707-.322.11-.768.18-.995-.109-.481-.587-.233-1.4-.032-2.057l.071-.235a19.57 19.57 0 0 1 2.386-4.311c.014-.008.029-.013.045-.015.004.007.006.015.007.024a3.88 3.88 0 0 0 1.013 1.168c.411.316.881.544 1.381.671.004 0 .01.008.01.024a.39.39 0 0 1-.042.125h0zm14.438-1.259a37.14 37.14 0 0 1 2.386-3.005c1.232-1.103 1.724-.618 1.767-.274a250.92 250.92 0 0 1-3.783 6.657c.002-.008-.399.618-.399.618a5.94 5.94 0 0 1-2.058 2.151c-.081.028-.168.037-.253.028a.59.59 0 0 1-.241-.082c-.165-.114-.252-.315-.224-.516.055-.677.728-2.73 2.804-5.577l.002.001zM18.916 7.017c-1.593-1.064-4.794.971-7.358 4.459-2.345 3.13-3.358 6.767-2.255 8.449 1.638 1.98 4.682-.898 5.977-2.44l.168-.18c.846-.997 1.59-2.08 2.218-3.231l.634-1.065a14.03 14.03 0 0 0 1.331-.328c-.007.023-1.941 3.332-1.744 4.975.061.501.015 2.332 1.77 2.887 2.34.399 4.209-1.447 5.857-3.09l.44-.43-.092.383c-.685 2.425.239 2.934.816 3.121 1.745.517 3.83-2.065 3.838-2.065-.055.812-.212 1.486.63 2.026.795.29 1.599-.152 2.21-.567 2.203-1.582 3.977-4.053 5.41-6.191h-.916c-.011 0-2.255 3.312-3.713 4.032 0 0-.268.138-.42.029-.189-.164-.115-.506 0-.748.008-.016 5.628-9.941 5.628-9.941h-2.652l-.313.513c-.018-.016-.06-.098-.09-.137-1.643-2.313-5.368 1.248-8.172 5.379-1.116 1.7-2.417 3.265-3.878 4.667 0 0-2.111 1.97-3.013.556a2.78 2.78 0 0 1-.042-2.035c1.05-3.043 2.859-5.805 4.918-7.471.581-.462 1.213-.594 1.527-.399.291.216.361.629.158.931-.44-.033-.871.137-1.176.462-.615.657-.829 1.291-.633 1.881.951 1.377 2.846-1.346 2.754-3.004a1.79 1.79 0 0 0-.809-1.432c-.773-.372-1.67-.363-2.436.024-.916.352-2.366 1.582-3.213 2.535-1.066 1.197-2.893 2.523-3.465 2.378.187-.513 1.73-3.724.107-4.928l.001-.003zm13.34 17.408c-3.126-2.05-7.368-2.409-14.209-.476-7.293 1.745-9.725 2.865-12.918.618-1.226-1.103-1.667-2.879-1.338-5.437.762-4.17 2.82-8.183 6.477-12.634 2.041-2.316 3.934-4.303 6.434-5.101 1.916-.5 1.737 1.033 1.505 1.251-.34-.009-.677.077-.973.25a2.55 2.55 0 0 0-.678.767c-.173.3-.283.632-.326.977-.055 1.353 1.321 1.071 1.914.329.64-.837 1.585-2.441.84-3.934-.166-.272-.387-.505-.649-.682a2.16 2.16 0 0 0-.87-.344c-2.288-.134-4.42.977-6.387 2.205-4.245 2.972-7.6 7.082-9.692 11.875C.265 16.876-.752 20.865.771 24.112c1.176 2.253 3.623 3.45 6.539 3.199 2.085-.304 4.15-.737 6.183-1.298 1.663-.407 10.18-3.387 12.978 1.8.336-.574.813-1.049 1.384-1.378a3.73 3.73 0 0 1 1.872-.5c1.912-.18 4.67.564 6.678 2.065-.669-1.026-2.562-2.534-4.15-3.575v-.001z" fill="#120d21"/></svg>