<svg xmlns="http://www.w3.org/2000/svg" width="81" height="22" fill="#120d21" xmlns:v="https://vecta.io/nano"><path d="M56.677 8.608c.556 0 1.006-.435 1.006-.972s-.451-.972-1.006-.972-1.006.435-1.006.972.451.972 1.006.972zm22.848 2.266c-1.553-.033-4.59 2.323-4.948 2.685l1.587-2.619h-2.389c-3.071 5.024-9.487 9.916-12.336 10.015-2.577.181-2.764-1.598-1.911-3.706v.016c3.651.362 10.067-3.261 8.053-5.946-1.723-1.664-6.364.083-9.316 3.887l-.205.297-.443.626c-1.041 1.351-3.191 3.294-3.191 3.294-2.764 2.619-4.01 1.087-2.849-.807l4.555-7.627h-2.047c-.563.741-3.327 5.633-7.815 8.697-2.542 1.877-4.521 1.071-2.747-1.367l4.453-7.33 2.474-.016.324-.329h-2.542l2.696-4.547h-2.252c-1.195 1.96-3.992 6.523-6.791 7.676.495-.642.324-1.499.324-1.499-.204-.988-1.348-1.087-1.348-1.087s-1.621-.231-3.464 1.35l.99-1.581H36.12c-1.98 3.393-7.234 10.607-10.101 9.916-.767-.329-.819-1.268-.017-2.536l4.539-7.412h-2.253c-.307.445-1.228 2.141-1.211 2.108.085-.445.204-2.158-1.535-2.504-.393-.083-.666-.099-1.041-.099-1.928-.017-3.873.955-5.784 2.586-1.348 1.153-2.627 2.685-3.702 4.596-4.624 4.101-9.367 4.332-10.92 2.8-1.638-1.631-2.286-4.974.751-10.608C5.919 8.338 9.912 1.98 15.662.514c4.3-1.103 6.04 1.235 6.194 3.953 0 0 1.297-2.355 2.764-3.821-.905.362-2.884.807-3.805.264C18.033-.804 12.676-.54 5.817 5.62-.07 11.385-4.25 22.586 7.421 21.713c4.129-.494 7.593-3.674 7.593-3.674-.546 1.927.341 3.377 2.047 3.674.631.115 1.519-.05 2.27-.329.631-.247 1.962-.774 3.702-2.093-.546 2.109 2.832 5.255 9.06-2.174l-2.884 4.464 2.628-.017s4.385-7.478 5.187-8.236c1.706-2.19 4.846-2.602 4.794-1.071-.341-.164-.648-.214-.904-.164-.751.115-1.092 1.021-.938 1.647.085.214.205.428.563.593 0 0 1.467.988 4.999-3.278l-.512.873-4.027 6.77c-1.809 3.344 2.474 3.657 5.033 1.532 0 0 2.082-1.482 4.453-3.986a1.42 1.42 0 0 0-.085.165c-1.229 2.125-2.577 4.299-.836 5.238.495.214 1.843.362 3.515-.774 0 0 2.678-2.125 4.095-3.854-.597 1.335-1.143 3.525 1.28 4.513 1.365.412 2.474.148 3.839-.297 4.283-1.35 9.759-7.411 9.759-7.411l-4.794 7.724 2.354-.016 4.027-6.391c1.825-2.767 5.784-4.661 6.193-3.706-1.467-.28-1.826 1.812-.665 2.24 1.808.675 2.849-2.668.358-2.8h0zm-14.216.156c.632.066.939.379.871 1.236-.205 1.846-3.003 4.861-6.586 4.762 1.246-2.834 4.215-6.129 5.715-5.997zm-43.045 8.403c-.682.56-1.519 1.005-1.519 1.005-3.429 1.664-4.197-.148-3.822-1.828.324-1.45 1.655-3.576 2.747-4.877.99-1.071 2.03-1.895 3.362-2.521 2.849-1.351 4.589.346 3.412 2.752-.785 1.582-2.047 3.707-4.18 5.47h0z"/></svg>