<svg xmlns="http://www.w3.org/2000/svg" width="74" height="30" fill="#120d21" fill-rule="evenodd" xmlns:v="https://vecta.io/nano"><path d="M43.272 9.398c-.808-.269-1.154-.229-1.773 0-.573.211-.885.071-1.108.02 0 0-.03.66.737.58.326-.035.884-.194 1.331-.063.866.255.649.647 1.782 1.408.35.184.688-.196.941-.094.134.054.223.516.383.549s.418-.355.672-.29c.151.039.21.509.37.541s.428-.337.669-.273c.182.049.205.488.411.535.16.037.417-.345.619-.298.165.038.192.244.454.368.245.115.47.107.561-.029.118-.175-.022-.354-.35-.504-.529-.243-1.418-.487-2.295-.738s-1.642-.57-1.695-1.011c-.023-.186.069-.165.107-.151-.338-.249-.408-.485-.391-.615h0-.001 0l-.097.028c-.238.061-.643.265-1.325.037z"/><path d="M38.141 8.273l-.126.557c-.01.046-.054.067-.098.045l-.653-.316c-.05-.022-.051-.064-.001-.087a3.21 3.21 0 0 1 .798-.261c.055-.01.091.019.079.063zm-1.238-.432l-.125.557c-.011.046-.054.067-.097.046l-.654-.316c-.05-.024-.051-.065 0-.088a3.12 3.12 0 0 1 .798-.261c.054-.011.091.018.078.063zm-.388 1.735c-.009.046-.052.065-.097.046l-.653-.317c-.05-.023-.05-.064-.001-.088a3.15 3.15 0 0 1 .798-.263c.055-.009.092.02.08.064l-.128.557zm-.911-1.947l-.127.556c-.009.047-.052.068-.097.047l-.653-.317c-.051-.024-.052-.064-.002-.088a3.18 3.18 0 0 1 .799-.262c.055-.009.09.021.079.065zm-.261 1.144l-.127.555c-.01.047-.053.068-.097.047l-.654-.317c-.049-.023-.05-.065-.001-.089a3.22 3.22 0 0 1 .799-.261c.055-.01.09.02.079.064zm-.258 1.17l-.127.556c-.009.047-.053.067-.097.047l-.653-.317c-.05-.024-.051-.065-.001-.088a3.19 3.19 0 0 1 .798-.261c.055-.011.092.019.08.064zm-.956-1.788c-.008.047-.052.068-.095.047l-.654-.317c-.05-.024-.051-.063-.001-.088a3.13 3.13 0 0 1 .8-.262c.054-.01.09.019.079.064l-.128.555zm-.131.58l-.126.557c-.012.045-.054.067-.098.045l-.653-.316c-.05-.024-.05-.064-.001-.088.253-.123.521-.211.799-.262.056-.01.092.02.08.064zm-.252 1.155l-.126.556c-.01.045-.053.067-.097.045l-.654-.316c-.05-.024-.051-.064-.001-.087a3.13 3.13 0 0 1 .799-.263c.055-.009.09.02.079.064zm-1.06-1.578l-.654-.315c-.049-.024-.05-.065-.001-.089a3.23 3.23 0 0 1 .8-.261c.054-.01.09.019.079.064l-.127.556c-.011.045-.054.067-.097.045zm-.039.554l-.126.557c-.01.047-.054.067-.097.045l-.653-.316c-.051-.025-.052-.064-.002-.088a3.11 3.11 0 0 1 .8-.262c.055-.009.09.021.079.063zm-.253 1.164l-.127.556c-.009.047-.052.067-.096.046l-.654-.317c-.049-.024-.051-.064-.002-.087a3.1 3.1 0 0 1 .8-.262c.055-.01.091.02.079.064zm-1.081-1.488l-.653-.317c-.05-.022-.053-.062-.002-.088.253-.122.521-.21.799-.261.055-.009.09.019.08.064l-.127.555c-.009.047-.053.068-.097.046zm-.181 1.173c-.009.046-.052.067-.096.046l-.652-.317c-.049-.023-.051-.063-.001-.087a3.08 3.08 0 0 1 .798-.261c.055-.01.092.018.08.064l-.128.556zm-.26 1.165c-.009.046-.053.067-.097.046l-.653-.317c-.05-.023-.052-.064-.002-.088.253-.122.522-.21.799-.261.054-.009.09.019.08.064l-.128.556zm-.819-2.072c-.01.047-.053.068-.096.046l-.654-.317c-.049-.022-.052-.064-.001-.087.253-.122.521-.209.799-.262.055-.01.09.02.079.065l-.127.554zm-.16.715l-.127.556c-.01.045-.054.068-.098.045l-.652-.316c-.05-.023-.051-.064-.001-.088a3.2 3.2 0 0 1 .798-.262c.055-.01.092.02.08.064zm-.263 1.202l-.127.554c-.01.046-.053.068-.097.046l-.653-.317c-.05-.023-.051-.063-.002-.087a3.14 3.14 0 0 1 .8-.261c.054-.011.091.019.078.064zm-1.028-1.494l-.654-.315c-.049-.023-.05-.065-.001-.089a3.25 3.25 0 0 1 .799-.263c.056-.009.091.019.08.064l-.127.556c-.009.047-.052.068-.096.046zm-.055.623l-.127.557c-.01.046-.053.067-.097.046l-.653-.316c-.05-.023-.051-.063-.002-.089a3.22 3.22 0 0 1 .798-.261c.056-.01.092.021.08.064zm-1.181-.573c-.01.047-.053.067-.097.047l-.654-.317c-.05-.023-.05-.064-.001-.089a3.15 3.15 0 0 1 .799-.261c.054-.011.09.018.079.062l-.127.557zm-.262 1.166c-.01.047-.053.068-.097.047l-.652-.316c-.05-.024-.051-.064-.001-.089a3.26 3.26 0 0 1 .8-.261c.055-.01.091.02.08.064l-.128.556zM25.848 8.2c-.049-.023-.049-.064 0-.087a3.1 3.1 0 0 1 .799-.263c.054-.01.09.02.08.064l-.127.557c-.009.046-.053.067-.097.045l-.654-.316zm.069 1.635c-.01.046-.053.068-.097.046l-.654-.316c-.049-.023-.051-.064-.001-.088a3.14 3.14 0 0 1 .799-.261c.055-.011.091.018.081.062l-.128.557zm-1.42-1.336c-.049-.024-.051-.064-.001-.089a3.19 3.19 0 0 1 .799-.263c.055-.01.09.019.08.063l-.129.557c-.01.047-.052.068-.097.046l-.653-.315zm-.142-1.195a3.22 3.22 0 0 1 .801-.261c.054-.011.09.019.078.063l-.127.556c-.011.047-.053.069-.097.047l-.654-.316c-.049-.023-.049-.063-.001-.088zm.314-1.098c.254-.123.521-.21.799-.261.054-.011.091.019.08.062l-.128.556c-.01.046-.053.069-.098.046l-.653-.317c-.049-.023-.05-.064-.001-.087zm.831-.955a3.13 3.13 0 0 1 .8-.261c.054-.01.09.019.078.063l-.126.556c-.01.046-.053.068-.098.046l-.652-.317c-.051-.023-.051-.063-.001-.087zm1.098 1.581l-.128.555c-.01.046-.052.069-.097.046l-.653-.316c-.049-.022-.051-.063-.001-.088a3.21 3.21 0 0 1 .799-.261c.054-.01.09.019.079.063zm.506-1.054c.056-.01.092.019.08.064l-.127.556c-.009.046-.051.067-.096.046l-.653-.317c-.05-.023-.052-.064-.002-.088a3.16 3.16 0 0 1 .798-.261zm-.52-1.256a3.18 3.18 0 0 1 .799-.262c.054-.009.09.02.079.064l-.127.556c-.009.047-.052.067-.097.046l-.654-.316c-.05-.023-.052-.065-.001-.088zm1.21-.569a3.21 3.21 0 0 1 .799-.262c.055-.009.091.02.079.064l-.127.556c-.01.047-.053.068-.098.047l-.653-.316c-.049-.023-.051-.064-.001-.088zM43.09 7.34c.369 0 .596.283.637.411l-.796.173c-.158.034-.261-.034-.277-.158-.02-.137.128-.429.435-.427zm1.369.042c.057-.145.176-.244.299-.244.22 0 .326.24.325.314l-.532.119c-.149.029-.145-.052-.093-.188zm5.97 4.491c-.228-.144-.428-.162-.636-.225-.282-.085-.373-.432-.477-.472-.211-.081-.406.241-.534.199s-.18-.465-.284-.504c-.204-.076-.423.248-.552.206s-.197-.459-.3-.497c-.212-.078-.43.259-.558.217s-.164-.476-.268-.515c-.227-.085-.434.258-.634.227-.127-.02-.405-.067-.771-.312l-.339-.251c-.037-.014-.131-.037-.108.151.053.442.814.76 1.69 1.014l2.287.74c.327.151.467.331.349.506-.091.136-.316.145-.559.029-.261-.125-.288-.331-.452-.369-.202-.047-.457.335-.617.298-.206-.048-.228-.488-.41-.536-.24-.065-.508.308-.666.274s-.219-.504-.369-.543c-.253-.065-.511.325-.669.291s-.248-.497-.381-.55c-.252-.102-.589.279-.938.094-1.129-.763-.913-1.156-1.776-1.412-.446-.132-1.002.028-1.327.063-.765.08-.735-.582-.735-.582.222.052.533.192 1.104-.02.618-.229.963-.27 1.768 0 .679.229 1.084.024 1.321-.037.117-.03.206-.094.426.046s.431.295.539.242c.166-.081.107-.528.395-.623.131-.043.489.315.646.255s.108-.528.395-.623c.132-.043.49.315.646.256s.109-.528.395-.624c.132-.043.491.316.646.256s.109-.529.395-.625c.131-.043.491.317.646.257h0c.157-.062.135-.18.261-.498.025-.063.071-.124.134-.177.175-.144.439-.45.284-.794-.142-.311-.434-.301-1.075-.169l-3.89.848c-.523-.967-.876-.329-1.653-.422-.491-.059-1.285-.56-2.542.6-.676-.193-1.272-.022-1.717.228-.754-.308-2.192-1.046-4.925-1.046-.773 0-2.617.153-5.551.926-.751.198-1.437.155-1.604-.291-.173-.467.429-.956 1.564-1.5 2.816-1.349 4.695-1.031 8.481-3.037C39.51 1.77 39.643.509 39.641.204c0-.209-.212-.279-.335-.108-.683.953-.858.874-1.071.662-.284-.284-.475.167-.78.395-.232.172-.278-.035-.466-.156-.32-.207-.59.405-.865.528-.319.143-.377-.017-.485-.13-.076-.08-.214-.078-.313.016-.646.614-.74.544-.933.339-.143-.152-.221-.258-.639.166-.242.245-.645.535-.767.229s-.229-.484-.821.057c-.351.32-.59.346-.696.195s-.09-.568-.645-.131c-.497.391-.747.627-.911.249-.159-.366-.524-.058-.802.207-.146.139-.387.47-.583.134s-.505.011-.903.433c-.224.236-.375.133-.597-.025-.256-.183-.526.472-.897.864-.07.065-.171.112-.395-.044-.289-.199-.747.817-.877 1.066-.213.402-.448-.105-.696.258-.579.848-1.198 1.788-1.373 3.454-.21 1.993.528 3.617 1.278 4.213l-.196.503c-.209.562-.296 1.291-.027 1.802.26.494.869 1.315 1.095.54.11-.377.213-.357.576-.1.548.386.414-.318.524-.527.077-.146.172-.203.624.095.26.169.343-.061.42-.382.238-.993-.231-1.238-.694-1.331-.338-.068-.693-.011-.693-.011.739-1.127.83-1.742.001-2.312.124-.062.225-.028.331.017.204.086.375.243.483.434.115.202.302.653-.078 1.455.16 0 .771.039 1.048.667.362.117 2.705.303 3.728.138.372-.06.54-.396.911-.742.405-.377.875-.787 1.295-.48-.715.293-1.219.85-1.219 1.555 0 .53.218.742.597 1.058.342.285.449.737.574 1.089.16.447.497.461.572.037.103-.587.281-.478.508-.228.276.304.491.258.492-.18.001-.414.125-.619.588-.14.188.194.414.187.41-.236-.005-.517.227-.467.517-.246.101.077.171.133.225.13.228-.012.378-.455.202-.806-.087-.175-.215-.437-1.396-.68-.387-.08-.321-.349-.321-.349 2.885.14 5.331-.223 6.938-1.2 1.976.477 4.868.522 5.816.51s1.673-.054 2.267-.34c.626-.301.532-.758.242-.94zM14.407 21.06l2.137 4.698h-4.141l2.004-4.698zM1.87 19.208H0v10.578h7.462v-1.691H1.87v-8.887zm55.914 1.691v8.886h1.87v-8.886h3.687v-1.691h-9.137v1.691h3.58zm-19.929 7.222c-2.084 0-3.66-1.584-3.66-3.625s1.576-3.624 3.66-3.624 3.66 1.584 3.66 3.624-1.576 3.625-3.66 3.625zm-11.193-7.249c1.576 0 2.458.859 2.965 1.316l1.309-1.289c-.427-.483-1.683-1.906-4.301-1.906-3.019 0-5.69 2.04-5.69 5.504S23.589 30 26.608 30c2.324 0 3.9-1.262 4.408-1.718l-1.042-1.477c-.828.698-2.137 1.316-3.339 1.316-2.084 0-3.66-1.584-3.66-3.625s1.576-3.624 3.687-3.624zm18.326 7.866c.428.349 1.71 1.262 3.954 1.262 2.271 0 4.114-1.235 4.114-3.168 0-4.027-5.797-2.738-5.797-4.94 0-.617.508-1.128 1.843-1.128 1.603 0 2.645.725 3.045 1.047l.775-1.557c-.481-.456-1.95-1.262-3.82-1.262-2.805 0-3.954 1.584-3.954 3.141 0 3.651 5.797 2.604 5.797 4.779 0 .913-.908 1.315-1.95 1.315a5.86 5.86 0 0 1-3.366-1.101l-.641 1.611zm27.997-9.531h-7.988v10.578h8.148v-1.691h-6.278v-2.765h5.343v-1.692h-5.343v-2.738h6.118v-1.691zM18.388 29.785h2.204L15.53 19.207h-2.111L8.744 29.785h1.95l1.015-2.389h5.583l1.095 2.389zM37.855 30c3.019 0 5.69-2.04 5.69-5.504s-2.672-5.504-5.69-5.504-5.69 2.04-5.69 5.504S34.836 30 37.855 30z"/></svg>