<svg xmlns="http://www.w3.org/2000/svg" width="63" height="13" fill="#120d21" fill-rule="evenodd" xmlns:v="https://vecta.io/nano"><path d="M10.576.314v7.16c0 2.391-1.058 3.384-3.541 3.384s-3.541-.993-3.541-3.384V0h-2.39C.895 0 .79.105.79.314v7.277c0 3.998 2.548 5.396 6.245 5.396s6.245-1.398 6.245-5.396V0h-2.391c-.209 0-.313.105-.313.314zm34.657 1.763c.196 0 .287-.065.353-.209l.693-1.712c.039-.104 0-.157-.105-.157h-9.629c-.902 0-1.241.274-1.241.888v11.118c0 .523.261.758.954.758h8.975c.196 0 .287-.066.353-.209l.693-1.712c.039-.104 0-.157-.105-.157h-8.218v-2.26c0-.784.431-1.137 1.594-1.137h3.567c.196 0 .287-.065.353-.209l.667-1.646c.039-.105 0-.157-.105-.157h-6.075V2.077h7.277zm-19.457 8.636h-4.718V8.374c0-.784.431-1.137 1.594-1.137h3.124c1.502 0 1.92.575 1.92 1.751s-.418 1.725-1.92 1.725zm-4.718-8.662h4.221c1.411 0 1.803.531 1.803 1.633s-.392 1.633-1.803 1.633h-4.221V2.051zm7.226 3.985c1.045-.549 1.476-1.581 1.476-2.796C29.76.418 27.461 0 25.083 0h-5.435c-.902 0-1.241.274-1.241.888v11.118c0 .523.261.758.954.758h6.689c2.521 0 4.324-.98 4.324-3.528 0-1.529-.653-2.822-2.09-3.201zm29.695-.118h-4.442V2.051h4.442c1.659 0 2.025.64 2.025 1.933 0 1.306-.366 1.933-2.025 1.933zm4.991 6.624L60.108 7.63c1.424-.366 2.574-1.306 2.574-3.697C62.682.836 60.761 0 57.587 0h-5.461c-.901 0-1.241.274-1.241.888V12.45c0 .209.105.314.314.314h2.339V9.041c0-.784.431-1.137 1.594-1.137h2.352l2.587 4.651c.078.13.157.209.353.209h2.43c.17 0 .17-.144.117-.222z"/></svg>