<svg xmlns="http://www.w3.org/2000/svg" width="67" height="38" fill="none" xmlns:v="https://vecta.io/nano"><g clip-path="url(#A)" fill="#120d21"><path d="M6.455 20.321H7.72v2.4h-4.5v-2.4h1.26v-1.406H.479v1.406h1.273v7.068H.479v1.399h4.001v-1.399H3.219v-3.279h4.5v3.279H6.455v1.399h4.01v-1.399H9.189v-7.068h1.278v-1.406h-4.01l-.001 1.406zm48.261 7.068h-3.943v-3.294h3.392v-1.394h-3.393v-2.381h3.974v1.351h1.397v-2.757h-8.174v1.406h1.333v7.068h-1.333v1.399h8.193v-3.29h-1.445l-.001 1.89zm-34.185-1.89h-1.445v1.89h-3.943v-3.294h3.393v-1.394h-3.393v-2.381h3.975v1.351h1.397v-2.757H12.34v1.406h1.333v7.068h-1.334v1.399h8.191v-3.29zm30.622-7.071h2.867l-.733-.867h-2.938l.805.867zm12.982 4.715c-1-.283-1.707-.218-2.724-.556-.919-.306-1.101-.866-1.101-1.238s.406-1.341 1.849-1.341 2.391.948 2.445 1.783l.006-.004v.004h1.388v-2.878h-1.343v.627l.042.196c-.01-.029-.048-.107-.189-.247-.428-.388-1.24-.802-2.46-.802-1.479 0-3.221.91-3.221 2.669 0 1.715 1.248 2.313 2.307 2.591s1.601.279 2.486.517 1.455.766 1.455 1.549c0 .741-.459 1.713-2.328 1.713s-2.61-1.001-2.826-2.434l-.015.007h-1.321v3.494h1.38v-.654l-.004-.005-.05-.173s.05.117.207.225l.013.019c.699.532 1.616.885 2.791.885 1.311 0 3.607-.668 3.607-3.033-.004-1.693-.909-2.491-2.393-2.915v.001zm-22.087 4.247v1.399h4.058v-1.399h-1.33v-7.068h1.33v-1.406h-3.628l-2.402 5.77-.05.283-.048-.288-2.402-5.767h-3.624v1.406h1.328v7.068H33.95v1.399h4.055v-1.398h-1.268v-6.5l.01-.429.118.342 2.766 6.569h.787l2.776-6.571.102-.346.015.39v6.546h-1.263zM14.327 14.757v.323h1.369l-.39-.323h-.978zm36.865.006h-.712c-.198.038-.345.204-.361.317h1.072v-.318l.001.001zm-36.865 1.26h36.86v-.684H27.48c-.606.287-1.374.274-1.974 0h-7.198c-.68.296-1.462.295-2.144.003l-1.838-.005v.684.002zm10.379-1.265h-5.567c-.019.038-.274.256-.377.323h6.298c-.131-.093-.249-.202-.354-.323z"/><path d="M14.958 12.219a2.34 2.34 0 0 0-.108.668c.018.615.276 1.198.72 1.627a2.39 2.39 0 0 0 3.317.001c.444-.428.703-1.012.72-1.626 0-.279-.057-.544-.147-.793l.806-.178c.125-.033.12-.089.022-.119a10.09 10.09 0 0 0-1.11-.26 2.37 2.37 0 0 0-.849-.743 2.39 2.39 0 0 0-1.099-.268c-.306 0-.595.062-.861.166a.68.68 0 0 1-.1-.325c-.005-.111.016-.221.061-.322.242-.391.779-.544 1.22-.581.148-.008.504.01.543.051.086.068.235.093.392.038.151.057.19.102.362.155 1.516.513 3.195.784 4.891.475.265.249.412.686.597.988.05.076.11-.057.946-.085l.972-.002c-.651.074-1.211.437-1.543.961-.523.165-.926.323-1.077.414-.186.111-.22.173 0 .23a5.9 5.9 0 0 0 .782.145c-.017.104-.033.212-.033.321 0 .556.222 1.089.618 1.482a2.12 2.12 0 0 0 2.985 0c.396-.393.618-.926.618-1.482 0-.361-.101-.696-.262-.993l.842-.314c.23.083.386.219.55.409.134.15.437.091.617.048.292-.076.337-.307.335-.57 0-.12.006-.238.063-.332.342-.772 1.708-.874 2.408-1.045 0 0-.367.437-.626.534-.053 1.128-.488 2.109-.541 3.184.33.013.316.38.395.589-.092.198-.251 0-.395.066-.501-.275.119-.72-.291-1.061.211-.902.555-1.781.526-2.738-.131.013-.182.158-.236.262-.093.905-.356 1.731-.593 2.569.105.052.29.104.278.262-.318.197.012.513-.12.737h-3.259l-.362.323h4.998l.048-.182c-.737-.76-.459-1.9-.118-2.764l.858-1.153c.713-.276 1.149-1.14 1.901-1.416 0 .368-.462.525-.713.734-.262.616-1.095.681-1.214 1.363.316.367.79.602 1.187.943.41.25.262.773.593 1.036.054.079 0 .197-.094.262-.347.083-.337.315-.127.509.134.123.287.285.27.346h-2.307c0 .104.094.144.195.323h12.74c.096-.179-.112-.389-.201-.565-.9-.337-.895-1.182-.948-2.113.01-.038-.052-.126-.042-.318-.134-.125-.726-1.62-.457-2.789l.196-.385c.185-.263-.011-.404.12-.678l2.685-.515c.048-.025.035-.133-.015-.182l-.816.15c-.648-.271-1.599-.869-2.224-1.681.194-1.317.098-2.384-.034-3.097l.712-.629c.271.162.329.086.367-.002-.043-.049-.445-.218-.379-.391.254.067.31-.011.349-.152l-.178-.063h-.006l.029-.095c.052-.105.291-.006.383-.032.16-.097-.019-.242.035-.373-.373-.313-1.047-.323-1.455-.615-.126-.234-.178-.332-.31-.427s-.727-.149-.837-.114-.316.231-.316.231c-.424.088-.679-.048-.971-.223a.69.69 0 0 0 .396.473c-.295.12-.425.367-.473.676-.406.082-.421.483-.369.665-.332.197-.3.458-.182.722-.297.198-.252.483-.167.7-.249.152 0 .574.038.821.715-.146 1.608 1.42 2.891 1.613.241-1.118-.061-1.666-.339-2.218.209-.121.436-.287.656-.462.128.708.22 1.733.076 2.904-.009-.01-.019-.017-.025-.027-.08 0-.161-.053-.226-.079.013.038.161.271.131.314 0 0-.415.273-1.239-.071-.22.511-3.05 1.767-3.05 1.767.105.775.477 1.29.86 1.71.608.447 1.257.676 2.023.834l.727 2.004c.052.22.175.22.175.22.074.099.316.536.343.746l.06.741c.026.169.249.042.291.186l-.103.498-8.475.002c.119-.589-.184-1.104-.027-1.628-.341-.589-1.265-.996-1.108-1.769.45-.616 1.847-1.216 1.531-1.96 1.27-.639 1.94.428 3.143.349.419-.023.886-.068 1.27-.181-.475-.409-.928-1.009-1.168-1.546-2.521 1.007-4.973 1.836-7.707 2.386l-.211-.066c-.208.031-3.219.703-4.017 1.012a2.11 2.11 0 0 0-.68-.259h.07c.256 0 .646-.135.923-.231 1.17-.424 1.6-2.077 2.125-3.127.459 1.634 1.526 1.767 2.144 1.564l.057.513s.54-.019.946-.18c-.041-.097-.096-.356-.134-.697l.491-.283c.034.388.057.753-.059.95l1.392-.369c.268-1.194.995-2.854 2.281-4.066-1.726-.681-3.019.097-3.347.409-1.624.515-1.689 2.74-1.64 3.506-.281.055-1.463.462-2.021-1.568.325-.779.943-1.645 1.637-2.321.06-.05-.009-.13-.148-.049-1.395.95-1.905 2.622-2.654 4.034-.588.877-1.381 1.352-2.571 1.301-1.485-.023-2.204-1.561-2.885-2.559-1.043-2.268-3.742-1.453-5.749-1.938-.112-.057-.335-.712-.655-.688-.227.017-.013.249-.144.327-.252-.104-.463-.288-.779-.236-.198.04-.252.249-.237.433.158.72.936 1.035 1.517 1.298.223.331.14 1.473-.046 1.865-.239.437-1.18.281-1.369 1.283a.84.84 0 0 0 .094.546c-.365.191-.675.472-.898.817l-1.152.331c-.096.034-.096.089.029.118l.86.141-.002-.007zm29.723-5.607a5.41 5.41 0 0 0 1.694 1.126l-1.525.28c.172-.641-.415-.887-.17-1.406h.001zm.165-5.19c.058-.024.218.038.284.055.04.01.025.095.005.171-.1.021-.255-.033-.276-.086-.029-.057-.069-.116-.012-.141h-.001zm.013.389a.87.87 0 0 0 .131.332c-.002.051-.284.311-.61.584l-.182-.777c.129-.091.479-.19.66-.14zm-1.46-1.39c.057-.019.174.019.206.042s.006.12.004.152-.145.101-.145.101-.138-.105-.136-.137L43.32.577c.023-.053.049-.105.078-.155zm.179 2.929c-.18-.361-.325-.743-.287-1.301.174-.003.427.11.761-.04 0 0 .103.31.206.817l-.68.524zM41.295 9.63c-.546-.272-.206-.044-.048-.161.864.395 1.3.304 1.947.226.093.118.22.228.22.385-.791.223-1.407-.066-2.12-.448l.001-.001zm3.114 4.227c-.051-.416-.075-.711-.268-.909l-.913-2.603c.191-.188.34-.09.467.426l.379 1.108c.147.35.258.815.371 1.06 0 0 .099.017.155.149.278.769.35.893.303 1.26.067.288.475.053.437.409h-.865l.381-.003c-.262-.276-.077-.686-.448-.896zm-16.876.689c-.239.178-.526.291-.839.327-.031-.01-.058-.071-.059-.109l-.05-1.071c-.002-.011.017-.024.029-.029.027-.009.101-.038.13-.055.012-.007.041-.009.051 0l.708.815c.025.03.048.097.029.124l.002-.002zm-1.095.342a1.76 1.76 0 0 1-.792-.22c-.019-.027-.012-.097.01-.128l.591-.895c.006-.009.029-.009.042-.006a.99.99 0 0 0 .117.028c.013 0 .038.019.038.031l.053 1.074c.002.038-.029.104-.06.114l.001.002zm-1.493-2.23c-.038-.011-.096-.063-.094-.095.055-.148.124-.288.215-.414l.44-.118.479.598-.022.003c-.31.038-.6.057-.875.061l-.144-.038v.003zm1.347-1.226c.029.011.057.072.057.109l.005.084-.838.185c-.017-.035-.026-.076-.012-.095.23-.155.498-.25.785-.282l.003-.001zm-.151 1.169l-.486-.604.71-.156.032.708-.256.052zm-.046.19l-.066.121c-.006.012-.029.03-.043.029l-.349-.095.459-.055-.001.001zm.644-.129c-.006.01-.029.01-.042.005h-.005l.051-.011-.003.006-.001.001zm-.204-.147l-.034-.7.856-.133c-.003.029-.012.057-.025.084l-.434.654-.364.095v.001zm.912-.675c.019-.031.08-.066.113-.06a1.83 1.83 0 0 1 .335.335l-.793.247.345-.523zm-.957-.24l-.002-.066c-.002-.04.029-.11.059-.117.182.005.354.04.517.095l-.574.087v.001zm-.024-.185c.009 0 .017-.003.026-.003l.023.002h-.05l.001.001zm-2.506 1.182c-.094-.028-.072-.057-.015-.081l.622-.218a2.25 2.25 0 0 0-.128.38 2.7 2.7 0 0 1-.479-.08v-.001zm.809.271l.434.003.743.202c.009.003.017.025.017.038a.79.79 0 0 0 .013.138c0 .013-.01.024-.021.029l-.991.434c-.036.014-.108.013-.13-.011-.062-.175-.095-.359-.098-.545 0-.099.013-.193.029-.285l.004-.002zm.11.966l-.003-.007zm.054.099c0-.032.053-.082.086-.097l.995-.412c.01-.006.029.009.036.019l.067.076c.011.01.021.038.015.048l-.594.899c-.021.032-.086.066-.117.057-.205-.158-.372-.359-.488-.589h-.002zm.591.668l-.025-.017.026.016-.001.001zm.967.291h-.001.001zm1.244-.51c-.029.017-.101-.019-.127-.047l-.705-.814c-.01-.008-.002-.029.006-.041.019-.028.036-.057.051-.087.007-.012.029-.03.043-.028l1.043.287c.033.01.086.045.098.076-.089.247-.225.473-.408.656zm.477-.893c-.017.028-.096.038-.134.028l-1.038-.285c-.012-.003-.019-.025-.019-.038a.89.89 0 0 0-.008-.119c-.003-.013.005-.042.016-.047l1.009-.38c.035-.013.105-.007.129.017a1.74 1.74 0 0 1 .077.487c0 .114-.012.228-.034.337l.002-.001zm-.134-1.069c0 .033-.053.085-.088.1l.067-.023-1.075.401c-.012.005-.029-.009-.036-.019-.024-.032-.049-.063-.076-.092-.012-.009-.021-.036-.016-.047l.093-.14 1.053-.323.08.144-.001-.001zm2.805-1.529c-.467.334-.247.729-.536.807a3.63 3.63 0 0 0-.785.133c-.198-.183-.4-.338-.704-.418.579-.236 1.497-.469 2.025-.522zm-1.9.831c-.101.048-.369.15-.729.276a2.06 2.06 0 0 0-.314-.367c.452-.024.82 0 1.043.091zm5.042-5.869c-.706.705-.615 1.758-.533 2.586-.163.118-.364.217-.494.289-.077-1.016.033-2.533 1.028-2.875h-.001zm-17.678.357c-.119-.158-.293-.399-.158-.563.099-.122.303-.027.421.027l1.108.534c1.598.395 3.618-.187 4.885.953.062.057.107.111.094.19-1.86-1.258-4.659.602-6.349-1.14h-.001zm1.505 2.031c.132.079.185.288.33.406.237.393.686.524.924.864-.08.006-.161 0-.239-.017-.155-.03-.216-.076-.346-.133-.069-.111-.242-.148-.378-.076-.108.019-.408.005-.607-.048.038-.315.345-.617.316-.997l.001.001zm-1.861 3.392l.486.537-1.015-.041c-.025-.034-.038-.067-.032-.086a2.01 2.01 0 0 1 .225-.361l.335-.047v-.002zm2.883.133c.059.085.107.177.153.271l-.762.083.38-.323c.096-.076.204-.06.228-.03h.001zm-.335-.084l-.54.456-.418.019.22-.621.788.053c-.011.033-.021.066-.048.093h-.002zm-.132 2.798c-.191.139-.408.241-.641.307-.042-.006-.122-.07-.145-.165l-.21-1.133c-.004-.014.002-.032.016-.038.04-.013.079-.031.115-.053.012-.01.029-.003.038.008l.78.851c.077.089.074.192.048.223v.001zm-1.652-2.004c.01.009.013.03.005.042-.024.029-.033.038-.052.073-.007.013-.023.015-.038.01l-.869-.308.807.022.147.162zm.861-.043c-.026-.024-.055-.045-.086-.062-.015-.008-.019-.019-.013-.035l.016-.044.302-.015-.182.152c-.009.009-.025.013-.036.004h-.001zm-.206-.271l-.224.008h-.004l-.12-.636.109-.009.467.009-.23.63.001-.001zm-.505-.619l.117.627h-.332l-.517-.56.732-.066zm.129.769l-.121.068c-.013.009-.029.003-.038-.008l-.054-.059.213-.003v.001zm-1.646-.19c.003-.008.01-.016.012-.026-.003.009-.008.018-.012.027v-.001zm-.089.287c.022-.035.124-.079.222-.047l1.094.388c.012.004.024.019.021.033a.61.61 0 0 0-.01.106c0 .015-.012.024-.026.028l-1.143.211c-.113.016-.191-.038-.208-.076-.005-.057-.016-.11-.016-.167a1.88 1.88 0 0 1 .065-.477v.001zm.019 1.02c.004-.043.07-.128.168-.15l1.139-.207a.03.03 0 0 1 .021.003c.006.004.011.009.014.016.012.032.015.048.036.082.007.013.003.027-.01.038l-.906.724c-.098.073-.201.057-.225.028a2.06 2.06 0 0 1-.237-.534zm.273.585c-.01-.012-.019-.024-.027-.038.006.011.017.026.026.038h.001zm.213.258c-.021-.032-.006-.152.075-.219l.905-.717c.01-.013.026-.016.038-.005.026.024.067.054.101.073.014.008.019.019.012.036l-.392 1.085c-.042.109-.13.152-.169.144-.211-.1-.403-.235-.568-.399l-.001.001zm.663.445a.23.23 0 0 1-.035-.015l.034.015h.001zm.274.085c-.036-.022-.086-.12-.056-.217l.396-1.089c.004-.014.017-.024.032-.021a.55.55 0 0 0 .108.01c.016 0 .026.013.029.028l.213 1.135c.017.109-.034.18-.072.203-.054.004-.107.016-.163.016-.169 0-.33-.026-.486-.066h-.002zm1.885-.503c.01-.01.019-.019.025-.029-.009.01-.016.019-.025.029zm.07-.081c-.035.022-.148.014-.22-.059L17.7 13.3c-.009-.01-.013-.029-.003-.041.02-.022.036-.047.05-.074.007-.014.023-.017.036-.01l1.11.391c.115.045.144.135.134.171-.086.175-.197.336-.328.48h-.005zm.335-.496a1.1 1.1 0 0 0 .053-.12l-.053.119v.001zm.127-.358c-.015.036-.115.089-.217.057l-1.105-.393c-.012-.004-.024-.019-.022-.033.006-.036.01-.053.01-.092 0-.015.013-.024.027-.028l1.165-.181c.115-.014.188.04.199.079l.01.114a1.92 1.92 0 0 1-.064.477l-.002.001zm-.005-.971c0 .046-.067.127-.166.146l-1.158.181c-.007.001-.014 0-.02-.003s-.011-.009-.014-.016c-.012-.04-.028-.078-.048-.114-.009-.012-.006-.026.005-.038l.345-.293.979-.109c.032.081.055.161.077.247l.002-.001zm.596-.595c.075.024.1.073.006.099s-.22.047-.335.071c-.043-.101-.101-.193-.156-.285l.484.114.001.001zm-1.892-.421l.048-.136c.042-.108.134-.145.176-.139a2.04 2.04 0 0 1 .507.342l-.732-.066.001-.001zm-.151-.409c.035.026.082.128.053.223l-.065.181-.529-.015c-.046 0-.089.009-.136.009l-.045-.243c-.017-.112.035-.184.075-.202.058-.005.111-.017.168-.017.167 0 .325.026.48.064v.001zm-1.024.019c.043.005.126.07.148.167l.029.155c-.098-.09-.188-.188-.27-.293l.094-.029-.001-.001zm-.067.411l-.553.066c-.038-.074-.04-.143-.019-.167.091-.067.189-.125.293-.177a3.19 3.19 0 0 0 .279.277zm-2.012.534a5.2 5.2 0 0 1 .532-.15c-.053.098-.099.199-.139.302l-.393-.053c-.098-.017-.074-.072 0-.099h-.001zm35.132-5.627c-.04.033-.054.079-.021.085.061.011.096.032.167.097.038.019.029-.04.019-.072-.038-.091-.119-.146-.163-.11h-.002z"/><path d="M48.298 14.763h-1.882c-.024.126.124.219.211.316h2.055l.574-.277c.101-.247-.103-.465-.096-.665.034-.595-.3-1.187-.476-1.732.115-.121.258-.399.447-.325.44.68.522 1.549.447 2.413-.045.214-.411.409-.4.61.007.07.488.04.687-.128.035-.139.294-.31.377-.33.092-.261-.052-.253-.029-.41.046-.109-.015-1.287-.098-1.414-.031-.019-.041-.019-.043-.016-.092-.234.132-.592.222-.813l.657-.059c-.078-.579-.287-1.182-.419-1.776.08-.139.226-.247.359-.326.692-.453.082-1.184.059-1.748-.118-.293-.524-.521-.561-.844.084.065.148.038.166.043.198-.135.189-.33.09-.574l.54-.632c-.019-.297-.501-.741-.783-.741-.167.091-.278.276-.584.511-.009.012-.367-.123-.476-.009-.105.085-.069.361.124.51-.024.073-.046.102-.086.19-.021.044-.031.09-.003.116.063.057.086.145.041.281-.048.144.115.251.172.272.01.003.029.023.048.047.021.16-.525.447-.525.57-.043.373-.278.336-.505 1.563a4.26 4.26 0 0 1 .004.795l-.697 1.686c-.157.437.724 1.702.737 2.565-.191.285-.345.244-.357.33v.001zm1.429-1.314c-.045-.117-.082-.282-.059-.405.077-.073.22-.019.293-.03.089.409.111.465-.233.437v-.002zm.007-6.039c.025-.019.048-.08.062-.102.29-.184.09-.051-.198-.202-.094-.048-.096-.137-.084-.263.017-.157-.048-.187-.073-.237-.01-.021.035-.098.073-.152.067-.101.127-.31.159-.361.48.019.373.23.386.268.038.103.239.323.338.392-.029.289-.256.119-.155.382-.027.5-.625.437-.881.847-.026-.407.335-.406.373-.573v.001zm-.546 2.151c.13.117.268.264.368.289.069.171-.144.195-.22.275-.179.027-.246-.161-.35-.076-.024.019-.131-.003-.129-.024a1.39 1.39 0 0 1 .331-.466l.001.001zm-1.134 2.546c-.067-.346.396-.883.704-1.938.126-.044.193.244.373.133.278.007.159.724.417.268-.006-.201-.011-.428.149-.535.174-.04.287.057.299.209l-.268.414c.507.019-.163.828.507.68-.022.304-.187 1.156-.304 1.113-.092-.472-.166-.276-.166-.137.019.183.015.333.124.481-.036.038-.172.034-.211.043-.379-.537-.364-1.273-.608-1.856-.041-.002-.093.047-.091.09-.029.351-.166.859-.458 1.026-.182.106.4.042-.077.264.182.12.014.282-.186.282-.099-.211-.176-.386-.206-.539l-.001.001zm.502 1.165c-.069-.08-.175-.311-.218-.41l.278-.114c.086.095.172.272.185.428-.062.033-.148.09-.244.097zM39.621 7.61c-.041-.561.191-1.035-.072-1.634.003-.247.177-.437.13-.665l-.428.103c-.065.471-.144.627-.079 1.071.113.508.17.971.448 1.127l.001-.001zm-4.42 1.568c1.637-.456 2.766-.845 4.122-1.411-.565-1.197-.44-1.543-.392-2.308 0 0-.689.01-1.49-.201-.95.608-2.058 2.784-2.24 3.92v.001zm5.617.347c-.088-.085.042.051 0 0h0zm1.967-3.629c-.689-.471-1.223-1.567-1.975-1.493-.073-.808-.428-2.178.696-3.624.145-.066.383-.092.475-.198-.459-.048-1.064.235-1.503-.012 0 0 .203.352.438.405-.155.209-.456.358-.273.722-.375.221-.233.553-.118.732-.188.192-.302.537-.053.747-.306.326.074.602.163.712-.155.326-.006.578-.006.578-.006.235-.427.57-.579.678-.182.551-.112 1.66-.084 2.394 1.024-.486 2.029-.95 2.818-1.641v.001zM31.012 25.372c0-.579-.39-1.264-.925-1.585a.99.99 0 0 0-.431-.139c.13.008.306-.002.472-.07.559-.243 1.216-.94 1.216-2.113 0-.867-.376-1.567-1.015-2.028-.597-.429-1.306-.526-2.013-.526h-5.571v1.406h1.254v7.082h-1.254v1.4h3.956v-1.401h-1.238v-3.12h2.735c.943.011 1.308.627 1.327 1.156l.069 3.363h2.734v-1.398H31.05l-.038-2.026v-.001zm-2.517-2.451h-3.029v-2.603h2.867c.297 0 .666-.01.954.136.352.178.683.56.683 1.186 0 .722-.666 1.283-1.474 1.283v-.001zm-6.244 9.356h-1.888v5.65h.842v-2.445h.934c1.359 0 1.977-.694 1.977-1.581 0-.895-.584-1.624-1.865-1.624v.001zm-.034 2.477h-1.01v-1.748h1.045c.766 0 .995.447.995.859 0 .565-.402.889-1.03.889h-.001zm5.173-2.51l-2.519 5.681h.909l.689-1.665h2.493l.713 1.665h.928l-2.622-5.681h-.594.002zm-.593 3.287l.877-2.233.945 2.233h-1.822.001zm12.435-3.254h.842v5.65h-.842v-5.65zm4.344 1.325c0-.399.41-.672.98-.672.421 0 .931.133 1.457.589v-.922c-.415-.256-.894-.393-1.383-.396-1.137 0-1.883.586-1.883 1.507 0 1.548 2.683 1.681 2.683 2.85 0 .313-.318.711-1.01.711-.611 0-1.181-.291-1.637-.817v1.026A2.91 2.91 0 0 0 44.52 38c1 0 1.736-.648 1.736-1.532.004-1.798-2.68-1.781-2.68-2.867v.001zm-7.322 3.205c-.457-.703-.789-1.226-1.33-1.566.638-.239.997-.73.997-1.382 0-.977-.754-1.582-1.962-1.582H32.45v5.65h.858v-2.454h.36c.438 0 .797.133 1.586 1.292l.753 1.161h1.008l-.443-.657-.319-.462zm-2.393-2.062h-.55v-1.774h.551c.833 0 1.166.323 1.175.853.007.475-.255.92-1.175.92l-.001.001z"/></g><defs><clipPath id="A"><path fill="#fff" d="M0 0h67v38H0z"/></clipPath></defs></svg>