<svg xmlns="http://www.w3.org/2000/svg" width="84" height="13" fill="#120d21" xmlns:v="https://vecta.io/nano"><path d="M9.35 5.015c-.561.068-1.222-.056-1.85-.389s-1.12-.833-1.372-1.349c-.006-.02-.019-.036-.037-.047s-.038-.016-.059-.013-.039.013-.053.028-.022.035-.023.055c-.109.555-.432 1.145-.942 1.638s-1.139.808-1.707.89c-.02 0-.04.007-.056.021a.09.09 0 0 0-.03.051c-.004.02 0 .041.01.059s.026.032.045.039c.494.275.952.764 1.267 1.401.318.653.417 1.334.318 1.9-.007.02-.007.042.001.061s.022.036.04.046.04.013.061.009.039-.016.052-.033c.413-.386 1.021-.674 1.724-.773.719-.1 1.396.016 1.904.285.017.013.037.019.058.018s.041-.01.056-.024.025-.034.027-.054-.003-.042-.015-.059c-.239-.513-.325-1.179-.202-1.878.126-.715.447-1.321.859-1.724.016-.012.028-.03.033-.05s.003-.041-.006-.059-.024-.033-.042-.042-.04-.01-.059-.005zm2.151-2.61A6.36 6.36 0 0 0 8.696.383C7.592-.019 6.397-.106 5.246.13a6.49 6.49 0 0 0-3.801 10.45 6.35 6.35 0 0 0 6.254 2.275 6.49 6.49 0 0 0 3.802-10.451zM9.87 9.723a1.31 1.31 0 0 1-.294-.088c-.017-.01-.036-.014-.055-.012s-.037.01-.051.024a.09.09 0 0 0-.026.05c-.003.019 0 .039.01.056a1.18 1.18 0 0 1 .066.264c.137.969-.887 1.917-2.29 2.114S4.587 11.7 4.449 10.73c-.014-.102-.014-.206 0-.308.005-.019.003-.039-.005-.056s-.021-.032-.039-.042-.037-.013-.056-.009-.037.012-.05.027c-.071.056-.148.104-.229.144-.881.43-2.097-.251-2.717-1.521s-.408-2.656.473-3.086c.092-.045.189-.078.289-.1a.09.09 0 0 0 .052-.022c.014-.013.024-.03.028-.049s.001-.039-.008-.056-.023-.031-.041-.039a1.26 1.26 0 0 1-.207-.172c-.682-.705-.41-2.073.607-3.054s2.393-1.206 3.074-.501c.072.074.134.157.185.247.008.018.021.032.038.042s.036.013.055.011a.08.08 0 0 0 .05-.025c.013-.014.022-.031.025-.05a1.26 1.26 0 0 1 .106-.249c.461-.866 1.85-1.03 3.093-.366s1.887 1.903 1.426 2.768a1.22 1.22 0 0 1-.176.253c-.015.013-.025.03-.029.049s-.002.039.007.056.022.032.039.04a.09.09 0 0 0 .056.008 1.23 1.23 0 0 1 .264.018c.969.17 1.549 1.436 1.304 2.828S10.835 9.893 9.87 9.723zM17.2 8.8h2.296c0 .934.832 1.741 2.171 1.741 1.363 0 2.195-.632 2.195-1.514 0-.783-.631-1.187-1.514-1.388l-1.59-.379c-2.195-.58-3.205-1.712-3.205-3.457 0-1.918 1.741-3.457 4.189-3.457 2.019 0 4.189 1.057 4.189 3.533H23.56c0-.858-.881-1.438-1.767-1.438-1.035 0-1.741.631-1.741 1.438 0 .732.682 1.135 1.409 1.312l1.793.429c2.527.633 3.083 2.195 3.083 3.457 0 2.246-2.221 3.559-4.644 3.559-2.196 0-4.442-1.388-4.492-3.836zm10.248-2.348c0-3.735 2.827-6.107 6.184-6.107s6.208 2.372 6.208 6.107-2.851 6.184-6.208 6.184-6.184-2.448-6.184-6.184zm9.919 0c0-2.271-1.716-3.788-3.735-3.788s-3.71 1.514-3.71 3.788c0 2.296 1.691 3.836 3.71 3.836s3.735-1.54 3.735-3.836zM49.189.774l-.429 2.348a4.18 4.18 0 0 0-1.742-.404c-2.145 0-3.154 2.246-3.154 5.426v4.24h-2.499V.598h2.502v2.65c.605-2.07 1.792-2.902 3.306-2.902.805 0 1.637.202 2.016.429zM61.954.598v11.785H59.48v-1.762c-.782 1.337-2.474 2.019-4.063 2.019-3.206 0-5.855-2.423-5.855-6.158 0-3.76 2.65-6.133 5.83-6.133 1.666 0 3.306.656 4.088 1.993V.598h2.473zm-2.495 5.854c0-2.372-1.944-3.76-3.76-3.76-2.019 0-3.66 1.54-3.66 3.76 0 2.196 1.641 3.836 3.66 3.836 1.99 0 3.76-1.464 3.76-3.836zM71.703.781l-.429 2.348a4.17 4.17 0 0 0-1.742-.404c-2.145 0-3.154 2.246-3.154 5.426v4.24h-2.497V.604h2.499v2.65c.605-2.07 1.792-2.902 3.306-2.902.807 0 1.64.202 2.017.429zm12.25 6.705h-9.388c.328 1.918 1.741 2.851 3.659 2.851 1.363 0 2.65-.581 3.306-1.665l1.969.984c-1.035 1.97-3.154 2.979-5.401 2.979-3.407 0-6.082-2.448-6.082-6.184S74.741.345 78.098.345 84 2.717 84 6.428c.004.328-.022.681-.047 1.059zM81.53 5.494c-.225-1.843-1.59-2.852-3.407-2.852s-3.179.909-3.533 2.852h6.94z"/></svg>