<svg xmlns="http://www.w3.org/2000/svg" width="48" height="38" fill="none" xmlns:v="https://vecta.io/nano"><path d="M12.755 37.986c-.445-.045-1.61-.498-1.61-.621 0-.02-.026-.04-.056-.04-.166-.109-.317-.237-.45-.382a3.09 3.09 0 0 1-.815-1.377c-.144-.52-.147-1.067-.008-1.588a2.43 2.43 0 0 1 .261-.676c.026-.04.08-.149.133-.243a2.58 2.58 0 0 1 .409-.487c.665-.646 1.324-.939 2.408-1.057a4.85 4.85 0 0 1 2.648.407c.121.045.232.113.327.199 0 .02.031.04.067.04.077 0 .803.715.803.795 0 .031-.056.078-.128.109s-.128.075-.128.099-.026.041-.051.04a1.5 1.5 0 0 0-.45.288c-.077.069-.266.078-.266.015a1.22 1.22 0 0 0-.235-.273c-.542-.517-1.544-.795-2.448-.68-1.002.134-1.636.521-1.989 1.228-.24.477-.291 1.346-.102 1.729a.73.73 0 0 1 .071.184c0 .089.327.502.547.684.455.392 1.12.601 1.907.601.833 0 1.544-.258 2.05-.75l.307-.298.434.283c.161.099.315.209.46.328.087.134-.762.864-1.288 1.108-.598.273-.859.327-1.76.348-.465.004-.936.004-1.048-.011h.001zm10.02-.01c-.518-.088-1.013-.273-1.457-.547-.388-.258-.727-.578-1.002-.948-.048-.082-.101-.162-.16-.238-.037-.036-.061-.083-.066-.134-.012-.073-.036-.143-.072-.209-.144-.367-.223-.755-.235-1.147.024-.436.119-.865.281-1.272.189-.432.782-1.172.94-1.172.026 0 .056-.03.072-.065.068-.075.152-.134.245-.174l.302-.155a2.78 2.78 0 0 1 .629-.253 5.22 5.22 0 0 1 3.491.258 1.03 1.03 0 0 1 .327.199c0 .02.026.04.056.04.087 0 .542.392.69.606l.143.194-.153.119a.76.76 0 0 1-.208.124c-.036 0-.067.016-.067.04-.064.07-.14.129-.225.174-.215.129-.389.174-.389.099s-.389-.452-.562-.541a1.26 1.26 0 0 1-.204-.129c-.056-.069-.506-.199-.944-.273-.833-.139-1.835.07-2.346.482a2.24 2.24 0 0 0-.496.522c-.027.059-.058.117-.092.174-.174.288-.215.487-.22.988 0 .581.087.871.368 1.275.377.463.912.78 1.508.894a4.07 4.07 0 0 0 1.968-.134c.245-.089.869-.487.869-.556.034-.061.077-.116.128-.164l.123-.129.46.288a2.06 2.06 0 0 1 .465.353c.005.189-.91.929-1.406 1.133-.583.238-.803.28-1.661.298a10.83 10.83 0 0 1-1.099-.021l-.002.003zm10.122 0c-.796-.107-1.533-.467-2.096-1.023a2.49 2.49 0 0 1-.624-.871c-.309-.651-.383-1.384-.21-2.081a3.81 3.81 0 0 1 .792-1.425c.864-.84 2.142-1.222 3.552-1.068.254.022.506.067.752.134.076.034.157.058.24.07.133 0 .757.318 1.053.531.312.228.704.646.704.75 0 .03.02.059.041.059.056 0 .288.457.399.795.138.412.128 1.455-.02 1.863-.399 1.098-1.14 1.768-2.387 2.166-.24.078-.491.104-1.125.119-.358.012-.716.005-1.073-.02l.002.002zm1.406-1.028c.48-.078 1.227-.367 1.227-.466.005-.026.009-.031.014-.036s.011-.008.017-.011.013-.003.02-.003c.169-.106.315-.242.429-.402a1.75 1.75 0 0 1 .133-.229c.235-.382.317-1.073.184-1.604-.08-.313-.327-.795-.424-.829-.018-.007-.034-.018-.046-.033s-.019-.033-.021-.052a1.53 1.53 0 0 0-.501-.377c-.039-.009-.075-.03-.102-.06-.087-.084-.389-.179-.828-.263-.987-.189-1.968.025-2.576.571-.639.552-.889 1.416-.639 2.21.256.834.92 1.396 1.861 1.56l.409.075c.204.039.373.029.843-.05zM0 37.852c0-.02.245-.482 1.024-1.942l2.234-4.221.603-.016c.704-.015.603-.089 1.068.785l1.856 3.527.327.596c.026.02.552 1.042.649 1.252.01.025-.291.04-.675.04h-.692l-.347-.682-.348-.684-1.825-.016-1.825-.01-.348.695-.348.69-.675.005A6.11 6.11 0 0 1 0 37.852zm5.163-2.399c0-.045-1.227-2.414-1.273-2.464-.02-.02-.271.427-.562.995l-.624 1.217a1.07 1.07 0 0 0-.097.233c0 .04.419.055 1.278.055.426.012.853 0 1.28-.035l-.002-.002zm35.887-.691v-3.104l2.544.015 2.796.119c.583.229.941.517 1.155.939.107.219.123.313.123.795s-.016.576-.128.795c-.205.388-.533.701-.936.894a1.99 1.99 0 0 1-.45.174c-.022-.001-.044.002-.064.01s-.039.02-.054.035c-.036.05.204.358.532.695.046.045.169.194.281.327l.486.566a5.94 5.94 0 0 1 .307.353l.291.338c.033.031.056.071.066.114 0 .025-.312.045-.726.045h-.731l-.199-.273a1.14 1.14 0 0 0-.245-.273c-.02 0-.041-.035-.041-.075s-.02-.075-.041-.075a.84.84 0 0 1-.22-.233 3.08 3.08 0 0 0-.25-.313c-.041-.04-.199-.228-.348-.412l-.435-.507-.16-.174h-2.382v2.334h-1.176l.004-3.109zm4.892-.382c.598-.313.716-1.023.245-1.44-.266-.238-.394-.253-2.234-.268l-1.728-.02v1.848l1.779-.016 1.936-.104h.002zM12.1 25.421c-.026-.036-.039-.08-.036-.124 0-.064.123-.149.45-.298.511-.217 1.009-.461 1.493-.731.231-.133.454-.277.67-.432.307-.229.864-.8.864-.879a.32.32 0 0 1 .087-.144c.169-.184.118-.556-.143-1.083-.486-.959-.659-1.604-.659-2.459 0-.824.184-1.59.619-2.558a9.94 9.94 0 0 1 .501-.964l.302-.546a2.23 2.23 0 0 1 .16-.278c.026-.025.67-1.281.777-1.515.35-.92.597-1.875.736-2.846.036-.348.066-.457.128-.457s.726.675 1.264 1.291a13.36 13.36 0 0 1 1.242 1.714l.148.249a9.61 9.61 0 0 1 .542 1.043 6.33 6.33 0 0 1 .528 2.573c-.01.239.005.383.036.383.151-.053.296-.12.434-.199l.537-.273c.106-.051.209-.109.307-.174l.23-.134c.066-.03.271-.159.971-.606.352-.217.69-.454 1.012-.71.01-.025.051-.04.092-.04s.072-.02.072-.04.097-.109.22-.194c.138-.1.269-.208.394-.323a6.56 6.56 0 0 1 .72-.561c.399-.233.956-.422 1.248-.422a3.46 3.46 0 0 1 .828.209c.281.219.966.363 1.171.249.056-.035.066-.059.031-.059-.112 0-.634-.253-.961-.466-.675-.442-1.155-.556-1.748-.422-.261.06-.859.333-.941.427-.029.035-.071.058-.118.065-.017-.001-.035.002-.05.01s-.028.02-.037.034c-.112.114-.24.218-.373.308l-.424.327c-.133.124-.25.164-.307.099-.046-.054-.169-.298-.777-1.55l-.522-1.068-.48-.969-.7-1.415-.956-2.068c-.012-.079-.037-.156-.072-.229-.235-.536-.322-1.917-.153-2.543.08-.358.191-.708.332-1.048.028-.03.044-.069.046-.109.075-.203.166-.401.271-.591l.455-.805c.012-.007.022-.018.029-.03s.011-.026.011-.04c0-.054.869-1.346 1.191-1.763.112-.144.22-.249.245-.233.1.144.185.297.256.457l.435.879 2.535 5.141 1.089 2.195.716 1.455 6.896 13.942.44.934c0 .035-1.007.05-3.032.05h-3.03l-.087-.159-.312-.636-1.312-2.657-1.15-2.334-1.308-2.642c-.06-.149-.145-.288-.25-.412-.08 0-.307.114-.307.159 0 .02-.026.04-.056.04-.118 0-.71.487-1.273 1.042a10.64 10.64 0 0 0-1.043 1.118c-.081.104-.168.203-.261.298-.111.118-.213.242-.307.373s-.194.255-.302.373a11.92 11.92 0 0 0-.342.397 15.23 15.23 0 0 1-1.375 1.477 8.21 8.21 0 0 1-.803.735c-.036 0-.066.02-.066.04 0 .04-.23.214-.971.731-.813.563-1.687 1.038-2.607 1.415l-.435.169c-.217.088-.439.164-.664.229l-2.014.522c-.574.124-.927.153-.993.088l-.003.003z" fill="#120d21"/></svg>