<svg xmlns="http://www.w3.org/2000/svg" width="132" height="22" fill="#120d21" xmlns:v="https://vecta.io/nano"><path d="M32.034 4.573a1.58 1.58 0 1 0 0-3.161 1.58 1.58 0 1 0 0 3.161zm8.805-.847c-.564-1.129-2.709-1.75-6.153-1.524.056.169.113.339.113.508 2.201.113 3.556.677 3.782 1.468.339 1.298-2.427 3.387-7.507 5.645-.452-5.532-5.08-9.878-10.725-9.822-5.419 0-9.935 4.064-10.612 9.37C3.189 12.814-.818 16.37.141 18.515c.734 1.637 4.741 2.201 11.064.847-.056-.113-.169-.282-.226-.451-5.08.79-8.298.169-8.636-.847-.452-1.355 2.54-3.5 7.846-5.758 1.58-.677 7.338-3.105 14.112-4.854.056 0 .113.113.056.113-6.266 2.879-10.555 5.983-11.289 8.354-.96 3.048 3.048 5.532 7.338 5.532 5.08 0 9.314-3.556 10.443-8.354 6.774-3.5 10.951-7.112 9.991-9.37zm5.307 11.797a4.07 4.07 0 0 0-1.806.395l.282.903c.452-.169.847-.282 1.355-.282.734 0 1.185.339 1.185 1.016v.113c-.395-.113-.734-.226-1.298-.226-1.016 0-1.919.452-1.919 1.581 0 .96.79 1.468 1.693 1.468.734 0 1.242-.282 1.524-.677v.564h1.072v-2.822c0-1.298-.677-2.032-2.089-2.032zm1.016 3.161c0 .621-.565 1.016-1.242 1.016-.452 0-.903-.169-.903-.734 0-.508.452-.734 1.072-.734.452 0 .79.056 1.072.169v.282zm9.482-3.161a4.07 4.07 0 0 0-1.806.395l.282.903c.452-.169.847-.282 1.355-.282.734 0 1.185.339 1.185 1.016v.113c-.395-.113-.734-.226-1.298-.226-1.016 0-1.919.452-1.919 1.581 0 .96.79 1.468 1.693 1.468.734 0 1.242-.282 1.524-.677v.564h1.072v-2.822c0-1.298-.677-2.032-2.088-2.032zm1.016 3.161c0 .621-.564 1.016-1.242 1.016-.452 0-.903-.169-.903-.734 0-.508.452-.734 1.072-.734.452 0 .79.056 1.072.169v.282zm6.944-.677c0-1.355.96-2.484 2.314-2.484 1.524 0 2.314 1.185 2.314 2.597v.282h-3.5c.113.79.677 1.185 1.355 1.185.508 0 .903-.226 1.298-.564l.621.564c-.451.564-1.072.903-1.976.903-1.411 0-2.427-1.016-2.427-2.484zm3.5-.339c-.056-.734-.508-1.242-1.185-1.242s-1.129.508-1.242 1.242h2.427zM52.523 15.58h1.072v4.798h-1.072V15.58zm7.114 0h1.073v.734c.282-.452.734-.847 1.468-.847 1.072 0 1.693.734 1.693 1.863v3.048h-1.072v-2.709c0-.734-.395-1.185-1.016-1.185s-1.072.452-1.072 1.185v2.709h-1.073V15.58zm-9.37 1.129V15.58h-1.073v4.798h1.073v-1.806c0-1.185.621-1.919 1.693-1.919v-1.185c-.847 0-1.411.508-1.693 1.242zm21.9 1.128v.508h1.468v1.185c-.339.282-.847.452-1.355.452-1.185 0-1.919-.903-1.919-1.976s.734-1.976 1.806-1.976c.677 0 1.073.226 1.468.564l.339-.395c-.508-.395-.96-.621-1.806-.621-1.468 0-2.427 1.185-2.427 2.484 0 1.355.96 2.484 2.484 2.484.79 0 1.468-.339 1.919-.734v-1.976h-1.976zm8.185-2.314a2.47 2.47 0 0 0-2.484 2.484c0 1.411 1.072 2.484 2.427 2.484a2.47 2.47 0 0 0 2.484-2.484c0-1.411-1.072-2.484-2.427-2.484zm0 4.459c-1.072 0-1.863-.903-1.863-1.976 0-1.129.847-1.976 1.863-1.976 1.073 0 1.863.903 1.863 1.976 0 1.129-.79 1.976-1.863 1.976zm6.83-1.636c0 .903-.677 1.637-1.581 1.637s-1.468-.564-1.468-1.58V15.58h-.564v2.935c0 1.185.734 1.976 1.919 1.976.734 0 1.298-.282 1.637-.847v.79h.564V15.58h-.564v2.766h.056zm3.556-2.766h-1.806v4.798h.564v-1.637h1.185c1.016 0 1.919-.564 1.919-1.581-.056-.96-.79-1.581-1.863-1.581zm-.056 2.653h-1.185v-2.145h1.242c.79 0 1.298.395 1.298 1.073-.056.621-.564 1.073-1.355 1.073zm-12.87-2.71c-.508 0-1.468.226-1.976 1.242V15.58h-.564v4.798h.564v-1.976c0-1.75 1.185-2.314 1.976-2.314v-.565zm32.513-12.644c-1.411 0-2.37.282-3.33.734l.564 1.58c.791-.339 1.525-.564 2.484-.564 1.355 0 2.145.677 2.145 1.863v.169c-.677-.226-1.355-.339-2.427-.339-1.919 0-3.5.847-3.5 2.879 0 1.806 1.468 2.709 3.105 2.709a3.69 3.69 0 0 0 2.822-1.242v1.072h1.976V6.548c-.057-2.314-1.299-3.669-3.839-3.669zm1.863 5.645c0 1.072-.959 1.806-2.314 1.806-.79 0-1.694-.339-1.694-1.298 0-.903.791-1.355 1.976-1.355.79 0 1.468.169 1.976.339v.508h.056zm9.935.565c-.621.621-1.298 1.073-2.258 1.073-1.524 0-2.597-1.242-2.597-2.822 0-1.524 1.016-2.766 2.484-2.766 1.016 0 1.637.452 2.258 1.072l1.242-1.355c-.791-.903-1.807-1.524-3.5-1.524-2.596 0-4.516 2.089-4.516 4.572s1.92 4.516 4.516 4.516c1.693 0 2.709-.677 3.556-1.637l-1.185-1.129zm1.467-1.694c0-2.484 1.75-4.516 4.233-4.516 2.766 0 4.177 2.145 4.177 4.685 0 .169 0 .339-.056.564h-6.379c.226 1.411 1.242 2.201 2.484 2.201.96 0 1.637-.339 2.371-1.016l1.185 1.016c-.846.96-1.975 1.637-3.556 1.637-2.54-.056-4.459-1.919-4.459-4.572zm6.435-.677c-.113-1.298-.903-2.314-2.202-2.314-1.241 0-2.088.96-2.258 2.314h4.46zm-35.448-.17c-1.129-.395-1.976-.621-1.976-1.242 0-.508.395-.903 1.242-.903.734 0 1.637.339 2.427.847l.79-1.411c-.903-.621-2.088-.96-3.218-.96-1.75 0-3.104 1.016-3.104 2.653 0 1.693 1.411 2.201 2.709 2.54 1.016.282 1.919.508 1.919 1.242 0 .621-.564.96-1.355.96-.903 0-1.919-.339-2.822-1.073l-.903 1.355c1.072.847 2.427 1.298 3.669 1.298 1.863 0 3.218-.903 3.218-2.766.056-1.58-1.355-2.145-2.597-2.54zm8.128-3.556h-4.346v8.693h1.976V9.314h2.201c1.919 0 3.5-1.185 3.5-3.161 0-1.75-1.242-3.161-3.331-3.161zm-.169 4.685h-2.201V4.686h2.144c.96 0 1.525.621 1.525 1.468 0 .734-.565 1.524-1.468 1.524zM47.725 2.88c-1.411 0-2.371.282-3.33.734l.565 1.581c.79-.339 1.524-.564 2.484-.564 1.355 0 2.145.677 2.145 1.863v.169c-.677-.226-1.355-.339-2.427-.339-1.919 0-3.5.847-3.5 2.879 0 1.806 1.468 2.709 3.105 2.709a3.69 3.69 0 0 0 2.822-1.242v1.072h1.976V6.549c0-2.314-1.242-3.669-3.838-3.669zm1.919 5.645c0 1.072-.959 1.806-2.314 1.806-.79 0-1.693-.339-1.693-1.298 0-.903.79-1.355 1.976-1.355.79 0 1.468.169 1.976.339v.508h.056zm17.161-5.646c-1.411 0-2.371.282-3.33.734l.565 1.58c.79-.339 1.524-.564 2.484-.564 1.355 0 2.145.677 2.145 1.863v.169c-.677-.226-1.355-.339-2.427-.339-1.919 0-3.5.847-3.5 2.879 0 1.806 1.468 2.709 3.105 2.709a3.69 3.69 0 0 0 2.822-1.242v1.072h1.976V6.548c0-2.314-1.242-3.669-3.838-3.669zm1.919 5.645c0 1.072-.96 1.806-2.314 1.806-.79 0-1.693-.339-1.693-1.298 0-.903.79-1.355 1.976-1.355.79 0 1.468.169 1.976.339v.508h.056zm12.588-1.129c0-2.484 1.75-4.516 4.234-4.516 2.766 0 4.177 2.145 4.177 4.685 0 .169 0 .339-.056.564h-6.379c.226 1.411 1.242 2.201 2.484 2.201.96 0 1.637-.339 2.371-1.016l1.185 1.016c-.847.96-1.976 1.637-3.556 1.637-2.54-.056-4.459-1.919-4.459-4.572zm6.435-.677c-.113-1.298-.903-2.314-2.201-2.314-1.242 0-2.088.96-2.258 2.314h4.459zM59.411 2.992h1.976v8.693h-1.976V2.992zm12.869.001h1.976v1.355c.565-.847 1.355-1.524 2.709-1.524 1.976 0 3.105 1.298 3.105 3.33v5.532h-1.976V6.774c0-1.355-.677-2.145-1.863-2.145-1.129 0-1.976.79-1.976 2.145v4.911H72.28V2.993zM55.233 4.968V2.992h-1.976v8.693h1.976v-3.33c0-2.145 1.072-3.5 3.105-3.443V2.823c-1.581-.056-2.596.847-3.105 2.145z"/></svg>