<svg xmlns="http://www.w3.org/2000/svg" width="94" height="27" fill="#120d21" fill-rule="evenodd" xmlns:v="https://vecta.io/nano"><path d="M90.971 9.152c-.109-1.171-.379-2.239-.8-3.221.72-1.5 1.46-2.055 1.46-2.055s1.522 3.895.187 7.897c-.826 2.476-1.814 3.972-2.344 4.614-.118.143-.223.188-.158.101 1.248-1.682 1.935-4.358 1.656-7.336zm1.209 4.721c-.616.743-1.239 1.463-1.927 2.014-.099.079-.161.073-.086-.01 2.435-2.658 5.08-8.548 1.652-14.353 0 0-1.355.936-2.468 2.876-1.097-1.69-2.695-3.106-4.682-4.371 0 0-5.029 5.605-2.804 13.724-6.415.885-4.086 5.837-3.069 6.55.047.033.088.017.022-.084-.361-.553-1.369-2.487.709-4.342 1.115-.995 3.452-1.255 3.452-1.255-.531-3.898-.494-7.42 2.17-11.318.34.225 4.237 1.938 4.383 7.705.326 3.617-1.552 6.512-3.374 7.639-3.23 1.732-6.854 2.582-10.004 3.322-.267.063-.163.092.015.084 7.485-.315 14.14-3.681 16.698-6.894.493-.617.713-1.298.381-1.674s-.933.224-1.067.387zm-27.041 2.381c.188-1.203.72-1.777 2.957-1.777 2.385 0 2.948.624 3.066 1.777h-6.023zm2.957-3.597c-1.554 0-5.194 0-5.194 4.791s3.64 4.792 5.194 4.792h4.816v-1.822h-4.816c-2.446 0-2.959-.616-3.066-2.343h8.358v-.627c0-4.791-3.574-4.791-5.292-4.791zm-14.89 3.597c.188-1.203.721-1.776 2.957-1.776 2.385 0 2.948.623 3.066 1.776h-6.023zm2.957-3.597c-1.554 0-5.194 0-5.194 4.791s3.64 4.792 5.194 4.792h4.815v-1.822h-4.815c-2.446 0-2.959-.616-3.067-2.343h8.359v-.628c0-4.791-3.575-4.791-5.292-4.791zm-12.024 7.76c-3.237 0-3.37-.615-3.37-2.97 0-2.305.144-2.97 3.37-2.97s3.372.664 3.372 2.97-.144 2.97-3.372 2.97zm0-7.761c-2.891 0-5.487.366-5.487 4.791V27h2.117v-5.265c1.011.464 2.264.505 3.37.505 2.893 0 5.489-.366 5.489-4.792s-2.596-4.791-5.489-4.791zm-15.183 3.598c.188-1.203.721-1.776 2.957-1.776 2.385 0 2.948.623 3.067 1.776h-6.023zm2.957-3.597c-1.554 0-5.193 0-5.193 4.791s3.639 4.792 5.194 4.792h4.816v-1.822h-4.816c-2.446 0-2.958-.616-3.066-2.343h8.359v-.628c0-4.791-3.575-4.791-5.292-4.791zm-14.889 3.597c.189-1.203.721-1.776 2.958-1.776 2.384 0 2.948.623 3.066 1.776h-6.024zm2.958-3.597c-1.554 0-5.194 0-5.194 4.791s3.64 4.792 5.194 4.792h4.815v-1.822h-4.815c-2.447 0-2.958-.616-3.067-2.343h8.359v-.628c0-4.791-3.574-4.791-5.292-4.791zm-5.343-4.974L8.771 19.54 2.924 7.744l-.032-.061H.545l7.244 14.285.033.058h1.899l7.267-14.343h-2.349z"/></svg>