<svg xmlns="http://www.w3.org/2000/svg" width="75" height="15" fill="#120d21" xmlns:v="https://vecta.io/nano"><path d="M27.468 13.546l-2.552-3.76a.62.62 0 0 1-.096-.474.63.63 0 0 1 .272-.402c1.169-.778 1.902-2.169 1.902-3.775 0-2.749-2.315-4.923-5.168-4.923h-6.132a.42.42 0 0 0-.297.122c-.079.078-.123.184-.123.295v2.664c-.001.11.085.201.196.207 2.075.111 3.742 1.888 3.742 3.915 0 2.046-1.684 3.785-3.742 3.896-.11.006-.196.097-.196.207v2.585a.42.42 0 0 0 .419.417h3.563c.232 0 .419-.186.419-.417v-1.245c0-.887.772-1.102 1.362-.407l1.495 1.859a.72.72 0 0 0 .508.212h3.904a.63.63 0 0 0 .559-.332.62.62 0 0 0-.036-.646zM29.425.205h3.088a.42.42 0 0 1 .419.417v13.476a.42.42 0 0 1-.419.417h-3.088a.42.42 0 0 1-.42-.417V.622a.42.42 0 0 1 .42-.417zm8.521 3.531h-3.254c-.23 0-.417-.184-.419-.413V.622a.42.42 0 0 1 .419-.417H45.47a.42.42 0 0 1 .419.417v2.701a.42.42 0 0 1-.419.417h-3.174c-.115.002-.207.094-.209.209v10.15a.42.42 0 0 1-.419.417H38.58a.42.42 0 0 1-.42-.417V3.945c-.002-.115-.096-.208-.212-.209zM47.708.205h9.785a.42.42 0 0 1 .419.417v2.677c0 .11-.044.216-.123.295a.42.42 0 0 1-.297.122h-6.068c-.118 0-.214.095-.214.212v1.556a.21.21 0 0 0 .214.208h5.633a.42.42 0 0 1 .419.417v2.37c0 .23-.188.416-.419.416h-5.633c-.116 0-.211.092-.214.208v1.76c.002.116.097.208.214.208h6.233a.42.42 0 0 1 .419.417v2.616c0 .23-.188.416-.419.416h-9.95c-.232 0-.419-.186-.419-.416V.622c0-.111.044-.217.122-.295a.42.42 0 0 1 .297-.122zM67.042 0c-4.403 0-7.937 3.323-7.937 7.411s3.535 7.392 7.937 7.392c4.423 0 7.958-3.306 7.958-7.392S71.465 0 67.042 0zm0 11.314a3.93 3.93 0 0 1-2.78-1.139c-.737-.732-1.15-1.726-1.147-2.762a3.96 3.96 0 0 1 3.927-3.921c2.17 0 3.948 1.827 3.948 3.921.004 2.114-1.791 3.901-3.945 3.901h-.004zM7.855 0c2.241 0 4.247.95 5.681 2.466.078.084.118.196.11.31s-.061.22-.149.293l-2.035 1.694c-.166.136-.408.126-.562-.024A4.4 4.4 0 0 0 7.857 3.49c-2.171 0-3.928 1.643-3.928 3.88s1.757 3.86 3.928 3.86c1.139-.008 2.23-.455 3.043-1.247.153-.15.396-.161.562-.025l2.036 1.694c.088.073.143.179.15.293s-.032.226-.11.31c-1.434 1.515-3.44 2.466-5.681 2.466C3.514 14.72 0 11.62 0 7.37S3.514 0 7.855 0z"/></svg>