<svg xmlns="http://www.w3.org/2000/svg" width="95" height="35" fill="#120d21" xmlns:v="https://vecta.io/nano"><path d="M24 14c.4-1.3 2.3-1.2 3-1.8.6-.4 1.3-.8 1.3-2.6 0-1.6.7-1.8 1-2 0-.4-.8-.3-1.3.2.8-2 2.4-.3 2.4-.3-1-1.8-2.4-.9-3-.1s-.1 2.9-1.2 3.4-1.6-.4-2.3-.2c-1 .3-1 1.8-2 1.3.8-.5.8-1 1.3-1.7 1-1.3 3 .1 3.4-3.5v.7c2-2.7 4.2-.3 4 .4-2.7-.5-2 1.7-2.4 3.2h2L24 14zm2-2.8c-2-.8-3 1.1-3 1.6.5-.2 1.2-1.1 1.5-1.3.5-.4 1.3-.1 1.5-.3zm1.8-1c.3 2-3 1.9-4 3.3 0-2.8 3.5-1.3 4-3.3zM24 14.7c.8-1.1 1.4-.2 2-.7s1.5-1.9 3-1.2l1-.8-.6 1c1.7 1.1 2.6 1 2.5-1.1 2 1.3 1 4.3-.7 4.3-1 0-1.3-.5-1.8-.7-.4-.2-.7.2-1 .6l1.5.6-2-.3c-.6.6-1.4 1.1-2.6.5l.2.5H32l-4.5 2.1c1.2.3 2.7-1.3 4.4-.2 1.6 1 1 3.3.2 3.3-.6 0 .6-2.1-1-2.1-.6 0-1 .5-1.7 1L30 23l-1-1.1c-.5.4-1 .6-1.6.6l3 1.9h-2c0 .5 0 .9.2 1.4l.2-.1c.2.4 1 .9 2.5.7-.5 2-3.3 1.4-3.8.9v.7c-1.2-3.1-2.2-3.3-4-3.3L28 29l-1-.2c.3 1.2-1 3.4-2.2 3.6-.4 0 .7-.8.7-2.1s-1.3-1.6-2-2.1c-1-.9-1.5-3.4-2-4.1.7.4 1.3 2.5 2 3.3S26 28.9 26 30s-.4 1.4-.5 1.5c.4 0 1.7-2.4.5-3.6-.6-.6-1.4-.7-2-1.3-.8-.7-1.3-2.3-1.8-2.7s-2-1.2-1.7-3.6c-1 2.6.4 3 .6 4.7s1.2 3.6 2.2 3.9c-.2 0-.3.1-.5.1l-.2 1.7-.1-1.7c-2-.4-2-5.4-3.3-6.1l3 9-2-1.4c-.3 1.5 1.2 1.5 1 2.9-.2 1.5-2 1.4-1.8 1 0-.2.7 0 .7-.4 0-.3-1-.6-1.5-1.1-.3-.3-.5-.6-.6-1.8l-.7.9 1-2.7c.1-.6-1.4-1.4-1.6-2.5v6.3L15 30.9c-.3 2.5-3.6 2.3-4 2 2.4-1.9 1.3-2.7.6-4.3l-1.3.8 1-1.3c-.1-.3-.1-.7-.1-1 .1-1.9 3-1.8 1.4-3.7l-4.4 7.3.4-4c-2.6 1-1.7 1.1-2.4 2.9-.6 1.4-1.8 1.1-2.2.4-.5-.9.1-1.6.8-1.5.4-.4-.8-1-.3-2.1.7-1.7 2.8-1 3.8-2.4l-2.6.3 3-.8c.2-.5.3-1.1.3-2.1l-5.5 3.1 1.7-2.9c-3 2.6-3.8-.7-5.2-.4.4-1.8 1.8-.8 2.4-.8s1.5-1.2 2-1.4L1 17.3h8c.6 0 1-.2.7-.6-.4-.5-2 .1-3.6.2-1 .1-1.7-.3-2.2-.8l-1.4.4 1.2-.7c-.8-.9-1.5-1.7-3.4-.5-.6-1.7 1-3.1 2.2-3.1 2 0 2.2 2.2 3.7 1.4l-2.5-3 4 2.1-.5-1.6-1.7-.5 1.7.1c-.5-1.6-2.2-1.4-3-2.2-1.6-1.7.1-4 1.4-3.3-1 2 .8 2.8 2 2.5L7 5.6l5.2 5.5c-1.2.9-2.5.1-3.2-1.9-.6-1.9-2.8-.2-3.7-.7 0 1.2 2 0 2.2 2.4.2 1.5 1.3 2.9 3 2.6-.6 1-2-.2-3 1.2 1.6-.2 2 1.7 3.4 2.1-1-.6-1-2.1-2-2.3.6-.1 1 .2 1.7-.1.6-.2 1-.7 1-1.3.7.3.7.9.4 1.3s-1 .7-1 1c0 0 0-.1.4-.3-.3.4-.1 1 .2 1.4 0-.3 0-.7.1-.7.3.6 1 1 1.2.9-.7-.8-.2-1.4-.2-1.4-.3 0-.6.4-.6.4s-.2-.7.5-1c-.1-.1 0-.2 0-.2.6.6 1.7.6 2 .8 0 0-1.6-.2-1.4.7.2.8 2.6.4 2-2.3 0 0 .4 0 .6.1s0 .6 0 .6l.3.1S16 15.7 16 16c0 .1.6.2.7.2s0 .1 0 .1h-1c-.1 0-.5.5-.1.6 0 0 .4.1 1 .1s1-.1 1-.1-.1.4-1 .4-1.2-.1-1.2-.1c-.2.5 1 1.1 1 1.1h.3l.8-.7-.2.4c1-.2 1-.8.5-.9 0-.2.6-.2.6.3 0 .6-1.5.9-1.7 1.3-.1.3.2 1.1.4 1.2s.8.1 1-.1c.1 0 1-1.6 1-1.9s-.8-2.2-.8-2.2c.2-.5.8-.3 1.5-.8-1 1.1-.3 1.2.4 1.3-.6.5-1 .8-.7 1.6 3.3.8 2 5.6 4.4 6.4-2 .3-2-2.3-2.3-3.5-.1 1.2-.2 2.2.7 3.2.8.8 2 .4 3 .4 2 0 1.4 2.2 3 2.8-1-.8-.3-1.8-1.7-3.1-.7-.7-2.2 0-3.3-1.3s-1.5-4-3-5.1c1.8.5 2.5 3.6 3.4 4.6 1 1 3 .7 3.6 1.4 1.2 1.1 0 3.3 2.5 3.7V27c.5.1 1.2-.1 1.2-.5-.4.1-1.3.2-1.8-.3l.2.4c-1.5-.4-1-2.9-1.8-3.7-.8-.7-2.2-.3-3.3-1.3-1.2-.9-1.6-3.4-3.8-4.9 3-.9 4 4.7 6.6 4.7 1.4 0 2.4-2.1 3.6-2.1 1 0 1.6.5 1.7 1.3.2.9-.2 1.5-.2 1.5s.4-.5.4-1.3c0-1.4-1-1.9-2-1.9s-1.4.7-3 .7c-2 0-2.5-3.8-4.8-4 1.2-1 2.3.8 3.4.8.8 0 1-.6 1.6-2s1.4-.6 2 .1 1.6.7 2.2.2c-.2.5-.7.5-.5.8.1.1.2.1.4-.1.8-.7 1-2.6.1-3 .6 3-2 2.1-2 1.7.5.2 1 .1 1-.1-1.8 0-2-1.3-3-1.2l.4.2c-2 0-.8 3-2.3 3-.8 0-1.4-.9-2.4-1 1.2-1.1 2.4 1.7 2.7-.4-.8.8-1.4-.4-2.6 0zM17.7 10c-1.4.6-1.4-1.4-1-1.8 0 0-.2 1.1.7 1.5-1.2-2.1 1.2-2.9 1.2-4.5 0-1.4-.8-1.8-.8-3.1C17.7.4 19.8 0 20 .6c0 .4-1.6.5-1.6 2S20 4.4 20 5.9c0 .9-1.6 1.8-.6 3.6l2.3-6.8-1.8 2.1c-.6-.7-1-.8-1-2.1s1.4-1.5 1.4-2.1c0-.5-.7-.6-1.2-.6-.8 0-2.2.7-2.2 2.2s1 2.3 0 3.7l-1-1.3.6 1.7s-.4.7-.4 2c0 2.4 2 2.7 1.8 1.7zm.2-5.7c.6 2.1-1.5 2.6-1.6 4-.1-1.7 2-2.4 1.6-4zm1 5.5c-.6-.6-.3-1.8-.3-1.8s-1 1.3.3 1.8zm2.6 4.3c.1.3.7-.4 1.6-.1-.4-.3-1.6-.3-1.6.1zm-1-5.6c-.3.9-1.2 1.1-1.6 1.9.2 0 1.5-.3 2-1.1s0-3.1 1.5-3.7 3-1.5 1.3-3.4c2.8.7 1.2 3.8 1 4.2-.3.4-1.3 1.2-1.3 2.6 0 1-1 2.1-1.5 2.3.7.3 1.8-1.4 1.8-1.4L27 5.3l-2 1.1s.5-.5.5-2.1c0-2.3-2.4-2.7-2.3-2 0 .5.8.8.8 1.6s-1 1.2-2 1.4L21.6 4v1.4c-1.3.7-1 2.1-1.2 3zM23 7.3c.7-1.1 1.4-.9 1.7-2.1-.5.9-1.6 1.1-2 1.9-1 1.3.1 3.3-1.7 3.9 2.3.1 1.2-2.7 2-3.7zm1.4 3c.8-.2 1.2.5 1.8.3.3-.1.3-.5.1-.6 0 0 1-1.1.7-1.7-.8 1.7-2.4 1.7-2.5 1.9zm-3.2 3c.1.2.3-.2.7-.4-.4-.1-.7.3-.7.4zm6 7.6c1 0 1.8-1 2.3-1.4-.8.2-1.2.9-2.3 1-1.8 0-2.8-5.3-5.8-4.2 3.2.3 3 4.7 5.8 4.6zm-6.5-5.8c.1.4.8-.5 2 .2-.5-.7-2.2-.8-2-.2zM18 9.8c-1.3-2.4 2-2.9 1-4.8.1 1.5-3 3-1 4.8zm-7 2.9c-2.7 0-.7-3.1-2.8-3.5 1 .7.5 1.4.5 2.6 0 1.4 1.7 1.9 2.3.9zm.5-.9c-.6 0-1.4-.3-1.8-1.1-.3.7.6 2.6 1.8 1.1zm11.4 16c-.7-1.3-1.3-4.3-2.2-4.7.8 1.3.8 3.5 1.8 4.9.8 1.1 2 .9 2.6 1.9-.1-1.2-1.6-.9-2.3-2.2zm-4.6-9.7c-.2.1-.6.2-1 .5 0 .1-.1.3-.2.3.3.1 1-.4 1-.8zm8.3-1.3c.7.1 3-2.3 2.3-2.6s-.8 2.1-2.3 2.6zm-20-8.6C5 7.8 5 6.4 5.4 5.6 4 5.5 4 8.9 6.7 8.2zM.5 15s1.2-.9 2.5-.1c.3-1.3-2-1.2-2.5.1zm6.3-.4c-1.5.3-2-.5-2.5-1-.2-.3-.5-.6-1-.7v.1.2s-.1 0-.3-.2-.4-.2-.7-.2-.5.1-.7.2-.2.3-.2.4c.1.2.4.2.7.2s.6 0 1 .1c.2.1.4.3.6.6.7 1.2 3 1.7 3.3.3zm1 1.5c0-.9-3-.4-3 .2.1.7 3 .6 3-.2zm.3 2.1c1 .3 3-.6 2.6-.9-.3-.4-1 .9-2.6.9zm-3.2.9c1.6-.8 2.6 1.9 4 .4-1.6.5-1.8-1-3.3-.9.8-.8 1.8.4 3 .4s2-.3 2-1.1c-.3.3-1 .7-2 .7s-2.8-1.5-3.6.5zm-3 2.3c.7.4 1.8-.1 1.3-.8-1.4 1-2-.8-3 .5.3-.1 1-.1 1.5.3zm3.8-.8C4.4 19.9 4 22.3 2.4 22c0 1.1 1.5.6 2.2.1.6-.5 1-1.4 1.3-1.4zm4-1.5c-.6.8-1.6 1.5-2.6 1.1s-2.2-1.5-2.8.1c1.6-1.3 4 2.6 5.6-1.2zm-.6 5.7c-.2-.2-.6.3-1 .6-.6.4-1.2.6-1 .8.2.3 1 .2 1.4-.2.6-.3 1-1 .8-1.3zM5 26.6c.4.5 1.3-.8 2.6-1.2 1.3-.5 1.6-1.9 1.6-2.5-.5 1.1-.8 1.9-2 2.2s-2.7 1-2.3 1.6zm.4 1.8c-.1.9-.6 1-.6.9-.1 0-.1-.1 0-.2s.1-.2 0-.2-.7.1-.6.7c.1.3.4.6.8.6s1-.8.5-1.8zm6.8-9.6c-1 1 0 4.8-1.8 6.1 1.4-2.3.4-5.2 1.7-6.7-1.5 1.2-1 4.5-1.6 5.4-.5-4 1-5.5 1.5-5.8-3 2.3-1.3 5.5-2 7.1-1.3 2.5-3.4 1.1-4.3 2-.8.8 1 1.6.2 3 .5.2.6-2.1 1-2.4l-.5.1c-.1-.5-.6-.5-.6-.5.5-.8 2.5.5 5-1.8 2.3-2 .8-5.3 1.5-6.5zm3 1.1c-.1 0-.1 0-.1.1l.1.1 1.3.2c.5 0 1.3-.2 1.3-.2.1 0 .1-.1.1-.1s0-.1-.1-.1h-1.3-1.3zm-.5-2.7c0 .6 1 .8 1.2.7-1-.2-1-.9-.6-1 0-.2-.6-.2-.6.3zm-.4.8c0 .2 1 .6 1 .6s-.2.2-.7 0c.3.5 1 .5 1 .5s0 .3-.7.1c.2.5 1 .6 1.2.6.3-.1.6-.9.4-1.2 0 0-1-.5-2-.6zm-1 12.7c0-1.3-1-1.7-1-3.3 0-1.8 2-1.8 2-3.2s-1.8-2-1.8-4.7c-.5 3.2 1.3 3.5 1.3 4.8s-2 .9-2 3.1c0 1.3 1 2 1 3.4s-1 1.8-1 1.8c.3 0 1.3-.3 1.3-1.8zm1.5-9.5c.7 1.3 1 2.1.8 3.2S14.3 26 14 27.3c-.2.9.2 2.1 0 2.8 0-.7-.8-1.7-.6-2.9s2-1.9 2-3.2-1.3-2.5-1.7-3.6c-.1 1.3 1 2.1 1 3.6 0 1.4-2 1.8-2 3.3 0 1.2.7 2.1.7 3.3 0 .9-.6 1.7-.6 1.7 2.3-1.3 1-3 1.4-5.1.3-1.3 1.3-1.7 1.7-2.7.3-.9.1-2.5-1.3-3.4zm2 1.7c.1-.9-.6-1.9-.8-1.6s.7.8.8 1.6zm.8 4.6c-1.2-2.6 1-3.8-.6-5.8 1 2.4-1 3.5.6 5.8zm1.2 4.9c.3 1.6 2 .4 1.5 1.6 1-1.4-1-.7-1.5-1.6zm.1-6.1c-.5-1 .8-4.2-.5-5.3 1 2.1-1 4.3.2 6.1-1.7-1.3.7-4.3-1-5.8 1 1.7-.4 3.3-.1 4.9.3 1.8 1.4 1.7 1.5 3.1s-.7 1.9-.2 2.8c.6.9 2.3.5 2 1.7.6-1.1-.8-1.2-1-2.5-.2-1.2 1-2 .7-2.9s-1-1.1-1.5-2.1zm2.6-3.3c-.6-1.2.3-2.8-1-3.8.7 1.7-.4 2.3 1 3.8zm4.3 1.6c-.3.2.6.3.7.7.2-.4-.4-1-.7-.7zm6.2-4.2c-.7-1.3-2.3-.6-2.8.8 0 .1 0 .2.1.1.7-.9 1.8-1.8 2.6-.9.1.1.2.1.1 0zm-13.5-1.8c0 .1-.3.2-.7.4-.1.1-.2.3-.3.4.6.2 1.2-.4 1-.7zm1 10.9s1.3-.8-.1-1.6c.4.8.1 1.6.1 1.6zm-2-16.4c.8 0 1-.4 1.5-.4s.8.4 1.3.4.8-.4.5-.7c-.3.5-.8-.2-1.2-.2-.6 0-1 .3-1.3.5-.4.2-1 0-.7-.3-.3 0-.6-.4 0-1-1 .1-1 1.6-.1 1.6zM14 9.8c-.1 0-.2 0-.2-.1-.4-.3-.6-1-1-.9.2.2.1.9.5 1.3.2.2.4.3.7.3.5 0 1-.4 1-.9 0-.3-.1-.6-.3-.7-.3-.3-.8-.4-2-.9-3-1.1 1.5-4.3-.6-6.1 1.2 2.6-2.2 4.2-.5 6 .8.8 2.4.7 3 1.3.1.1.1.2.1.3 0 .3-.2.5-.4.5zm.3 2.6c-.6 0-1.3.7-1.4.2-.1-.3.5-.9 1.3-1-.7-.2-1.8.4-2 1.1-.2 0-.6-.3-.6-.3.2 1.6 1.6.2 2.2.2.5 0 2 1.1 2-.3-.5.7-1-.1-1.6-.1zM9.8 6.3c.1-1.1.7-2 .7-3.1 0-1.6-1.8-.1-2-.8C7.8.7 13-.2 13 2.9c0 1.7-.5 3.5.8 3.7l1-4 1 5.7c-1-1.2-2.6-.7-3-2.6-.3-1.4 1.3-4.8-2.4-4.5C14.6 2.5 8 6.3 12 8.6c1 .6 1.4 1.8 1 2.3-.1-1.6-1.6-1.8-2.2-2.5-.5-.6-.7-1.2-.8-1.7L8.4 6l1.4.3zm.8-3.9c-.3-1.1-2-.6-1.7-.2.2.2 1-.4 1.7.2zM12 5.5c-1.7 3.4 4.2 1.8 3.5 4.7 1.2-3.1-4-1.4-3.5-4.7zm3 9.5c-.5-.3-1.7-.3-2.2-1.1.6-.3 1-.8 1.6-.7 1 .2.7 1.6.6 1.8zm-.8-1.6c-.7-.1-1 .9-.4 1.1 0-.4.3-1 .4-1.1zm.4.2c0 .1-.2.7-.4.9.4.2 1-.5.4-.9zm4.4-.5c.5-.1 1 .4 1.6.7-.5.8-1.8.9-2.2 1.1-.1-.2-.5-1.6.6-1.8zm.6 1.3c.5-.2.3-1.2-.4-1.1 0 .1.3.7.4 1.1zm-.4.1c-.2-.2-.4-.8-.4-.9-.5.4 0 1.1.4.9zM25 4.3c-.6 1.3-2.2 1.3-3 2.2-1 1.7.4 3.4-2 4 2.7 0 1.3-2.4 2.3-3.8s2-.9 2.5-2.5zm19 10a2 2 0 0 1 1.2.4c.4.3.6.7.6 1.3 0 .4-.2.8-.5 1.1-.4.3-1 .5-1.5.5-.3 0-.6 0-.8-.1v1.2 1c0 .2.1.3.2.3h.5v.3h-2V20h.4c.1 0 .1 0 .1-.2v-4-1c0-.2-.1-.3-.2-.3h-.5v-.3H44zm-.3 3c.4 0 .7-.1 1-.3s.4-.5.4-.9c0-.9-.6-1.4-1.7-1.4H43v.1 2.4c.2.1.4.1.7.1zm6.8-3v.3H50c-.1 0-.1 0-.1.2v3.6c0 .6.2 1.1.5 1.4.3.2.6.4 1 .4.8 0 1.4-.3 1.7-.8.2-.3.2-.8.2-1.4v-2.3c0-.7-.1-1-.3-1h-.5v-.3h1.7v.3H54c-.1 0-.2.1-.2.2v3.4c0 .7-.2 1.3-.6 1.7s-1 .6-1.7.6c-1 0-1.6-.3-2-.9-.2-.4-.3-.9-.3-1.6V15c0-.2-.1-.3-.2-.3h-.5v-.3h2zm7.3.6c0-.2-.1-.3-.2-.3H57v-.3h2.7c.5 0 .8.1 1 .4.3.2.4.6.4 1 0 .6-.4 1-1 1.3h0c.4.1.8.3 1 .5.3.3.4.6.4 1.1s-.2.9-.5 1.2c-.4.4-1 .6-1.8.6h-2V20h.4c.1 0 .1 0 .1-.2v-4-1zm2.4 0c-.2-.2-.4-.3-.7-.3h-.7-.1v.2 2c.6 0 1 0 1.3.1.5-.3.7-.6.7-1.1 0-.4-.1-.7-.4-.9zm-1.6 3.9c0 .5 0 .9.1 1 0 .1.1.2.3.2h.6c.5 0 .8-.2 1-.4s.3-.5.3-.9-.1-.7-.3-1c-.3-.4-.8-.6-1.5-.6h-.5v1.7zm7.4-4.2c-.1 0-.1 0-.1.2v4.1c0 .5 0 .9.1 1 0 .1.1.2.3.2h.6c1.2 0 2-.2 2-.5 0-.1.1-.1.1-.1s.1 0 .1.1a13 13 0 0 1-.2.8h-4.3V20h.4c.1 0 .1 0 .1-.2v-4-1c0-.2-.1-.3-.2-.3h-.5v-.3h2v.3H66zm7.4 5.1c0 .2.1.3.2.3h.5v.3h-2V20h.4c.1 0 .1 0 .1-.2v-5c0-.2-.1-.3-.2-.3H72v-.3h2v.3h-.4c-.1 0-.1 0-.1.2v4 1zm8.6-4.6c0-.2-.2-.3-.5-.4s-.6-.2-1-.2c-.8 0-1.5.3-2 .9-.5.5-.7 1.2-.7 2.1 0 .8.3 1.5.8 2s1 .7 1.6.7c.4 0 .8-.1 1.2-.3s.6-.4.6-.7c0-.1.1-.2.1-.2s.1 0 .1.1a28 28 0 0 0-.1.8c-.6.3-1.3.5-2 .5-1 0-1.7-.2-2.2-.7-.6-.5-1-1.3-1-2.2 0-1 .4-1.8 1-2.5.7-.6 1.5-.9 2.5-.9.5 0 1 .1 1.6.3 0 .4-.1.6-.1.7s0 .1-.1.1-.1-.1-.1-.2zm5 4.6c0 .2.1.3.2.3h.5v.3h-2V20h.4c.1 0 .1 0 .1-.2v-5c0-.2-.1-.3-.2-.3h-.5v-.3h2v.3H87c-.1 0-.1 0-.1.2v4 1zm4.4-3.3c.2.1.4.3.8.4.6.2 1 .5 1.3.7.3.3.4.7.4 1.1 0 .5-.2.9-.5 1.2-.4.4-1 .6-1.7.6-.5 0-1-.1-1.4-.3l-.1-.9c0-.1 0-.1.1-.1s.1.1.1.2c.1.2.3.4.6.6.3.1.5.2.8.2.4 0 .7-.1 1-.3s.5-.5.5-.9c0-.3-.1-.6-.4-.8-.2-.2-.6-.4-1-.5l-1-.5c-.4-.3-.6-.7-.6-1.2s.2-1 .7-1.3c.4-.3 1-.4 1.4-.4s.8.1 1 .2v.7c0 .1 0 .1-.1.1s-.1 0-.1-.1c0-.2-.2-.3-.5-.4-.2-.1-.4-.1-.6-.1-.3 0-.6.1-.8.3-.3.2-.4.5-.4.8s.1.6.4.8z"/></svg>