<svg width="28" height="28" viewBox="0 0 28 28" fill="none" xmlns="http://www.w3.org/2000/svg">
<path d="M14 1.16663C13.0717 1.16663 12.1815 1.53537 11.5251 2.19175C10.8687 2.84813 10.5 3.73837 10.5 4.66663V14C10.5 14.9282 10.8687 15.8185 11.5251 16.4748C12.1815 17.1312 13.0717 17.5 14 17.5C14.9283 17.5 15.8185 17.1312 16.4749 16.4748C17.1313 15.8185 17.5 14.9282 17.5 14V4.66663C17.5 3.73837 17.1313 2.84813 16.4749 2.19175C15.8185 1.53537 14.9283 1.16663 14 1.16663V1.16663Z" stroke="#120D21" stroke-width="2.33333" stroke-linecap="round" stroke-linejoin="round"/>
<path d="M22.1663 11.6666V14C22.1663 16.1659 21.3059 18.2431 19.7744 19.7747C18.2428 21.3062 16.1656 22.1666 13.9997 22.1666C11.8337 22.1666 9.75652 21.3062 8.22497 19.7747C6.69342 18.2431 5.83301 16.1659 5.83301 14V11.6666" stroke="#120D21" stroke-width="2.33333" stroke-linecap="round" stroke-linejoin="round"/>
<path d="M14 22.1667V26.8334" stroke="#120D21" stroke-width="2.33333" stroke-linecap="round" stroke-linejoin="round"/>
<path d="M9.33301 26.8333H18.6663" stroke="#120D21" stroke-width="2.33333" stroke-linecap="round" stroke-linejoin="round"/>
</svg>
