<svg width="50" height="50" viewBox="0 0 88 88" fill="none" xmlns="http://www.w3.org/2000/svg"><path d="M26.4231 63.6368L23.6586 60.8724L60.7846 23.8293L63.549 26.5661L26.4231 63.6368ZM55.2558 64.4661C53.4313 64.4661 51.7635 64.0238 50.2523 63.1392C48.7595 62.2362 47.5616 61.0382 46.6585 59.5455C45.7555 58.0343 45.304 56.3572 45.304 54.5142C45.304 52.7082 45.7647 51.0495 46.6862 49.5383C47.6076 48.0271 48.824 46.82 50.3352 45.9169C51.8464 45.0139 53.4866 44.5624 55.2558 44.5624C57.0803 44.5624 58.7482 45.0139 60.2594 45.9169C61.7706 46.8016 62.9685 47.9995 63.8531 49.5107C64.7562 51.0035 65.2077 52.6713 65.2077 54.5142C65.2077 56.3572 64.7562 58.0343 63.8531 59.5455C62.9685 61.0382 61.7706 62.2362 60.2594 63.1392C58.7482 64.0238 57.0803 64.4661 55.2558 64.4661ZM55.2558 60.7895C56.38 60.7895 57.4213 60.5038 58.3796 59.9325C59.3379 59.3612 60.1028 58.6056 60.6741 57.6657C61.2454 56.7073 61.531 55.6569 61.531 54.5142C61.531 53.3716 61.2454 52.3304 60.6741 51.3905C60.1028 50.4321 59.3379 49.6673 58.3796 49.096C57.4213 48.5247 56.38 48.239 55.2558 48.239C54.1132 48.239 53.0627 48.5247 52.1044 49.096C51.1645 49.6673 50.3997 50.4321 49.8099 51.3905C49.2386 52.3304 48.953 53.3716 48.953 54.5142C48.953 55.6569 49.2386 56.7073 49.8099 57.6657C50.3997 58.6056 51.1645 59.3612 52.1044 59.9325C53.0627 60.5038 54.1132 60.7895 55.2558 60.7895ZM31.9519 42.9037C30.1274 42.9037 28.4595 42.4614 26.9483 41.5768C25.4371 40.6738 24.23 39.4759 23.3269 37.9831C22.4423 36.4719 22 34.7948 22 32.9519C22 31.1458 22.4607 29.4871 23.3822 27.9759C24.3037 26.4647 25.52 25.2576 27.0312 24.3546C28.5424 23.4515 30.1826 23 31.9519 23C33.7764 23 35.435 23.4515 36.9278 24.3546C38.439 25.2392 39.6461 26.4371 40.5492 27.9483C41.4522 29.4411 41.9037 31.1089 41.9037 32.9519C41.9037 34.7948 41.4522 36.4719 40.5492 37.9831C39.6461 39.4759 38.439 40.6738 36.9278 41.5768C35.435 42.4614 33.7764 42.9037 31.9519 42.9037ZM31.9519 39.2271C33.0945 39.2271 34.1358 38.9414 35.0757 38.3701C36.034 37.7988 36.7988 37.0432 37.3701 36.1033C37.9414 35.145 38.2271 34.0945 38.2271 32.9519C38.2271 31.8092 37.9414 30.768 37.3701 29.8281C36.7988 28.8698 36.034 28.1049 35.0757 27.5336C34.1358 26.9623 33.0945 26.6767 31.9519 26.6767C30.8092 26.6767 29.7588 26.9623 28.8004 27.5336C27.8605 28.1049 27.1049 28.8698 26.5336 29.8281C25.9623 30.768 25.6767 31.8092 25.6767 32.9519C25.6767 34.0945 25.9623 35.145 26.5336 36.1033C27.1049 37.0432 27.8605 37.7988 28.8004 38.3701C29.7588 38.9414 30.8092 39.2271 31.9519 39.2271Z" fill="#3576ED"></path>
<rect x="0.5" y="0.5" width="87" height="87" rx="31.5" stroke="#3576ED"></rect>
</svg>