<svg width="85" height="25" viewBox="0 0 84 23" fill="none" xmlns="http://www.w3.org/2000/svg"> <path d="M55.8617 18.3295V17.2538C54.761 17.9773 53.4706 18.3581 52.1536 18.348C49.9624 18.348 48.7168 17.2538 48.7168 14.9625V14.5208C48.7168 11.3663 50.967 10.9465 54.2571 10.9465H55.6527V10.2114C55.6527 8.52546 55.2988 8.18827 53.2155 8.18827C51.9833 8.19574 50.7525 8.27342 49.5292 8.42093V6.55287C50.0349 6.34212 51.7794 5.90039 53.6739 5.90039C57.4242 5.90039 58.4018 7.18342 58.4018 10.2114V18.3295H55.8617ZM55.7151 12.6494H54.2571C52.2345 12.6494 51.3917 12.8804 51.3917 14.4365V14.9423C51.3917 16.0365 52.0575 16.3299 53.0368 16.3299C53.9729 16.307 54.8904 16.0638 55.7151 15.6201V12.6494Z" fill="#171923"></path> <path d="M65.9003 22.6354C64.3628 22.6135 62.8301 22.4589 61.3191 22.1735V20.2818C62.6304 20.3661 64.2974 20.4706 65.7352 20.4706C67.901 20.4706 68.1505 19.8182 68.1505 18.4727V18.0108C67.4539 18.1137 66.7511 18.17 66.047 18.1794C62.6102 18.1794 60.6533 16.662 60.6533 12.7134V11.3883C60.6533 7.64538 62.3388 5.90039 66.4026 5.90039C67.9059 5.91577 69.4072 6.01427 70.8996 6.19544V18.4727C70.8996 21.0388 69.9001 22.6354 65.9003 22.6354ZM68.1505 8.34001C67.5155 8.25291 66.8751 8.21065 66.2341 8.21356C63.9856 8.21356 63.4024 9.22515 63.4024 11.4169V12.7219C63.4024 15.0974 64.1508 15.8747 66.1936 15.8747C66.8487 15.8754 67.5029 15.8264 68.1505 15.728V8.34001Z" fill="#171923"></path> <path d="M75.8702 12.9876V13.1967C75.8702 14.9215 76.1213 16.0359 78.9952 16.0359C80.2239 16.0359 81.6819 15.9095 83.2241 15.7628V17.8433C81.7979 18.1828 80.3365 18.3526 78.8704 18.3491C74.6414 18.3491 73.1396 16.7086 73.1396 12.5459V11.8091C73.1396 7.83528 74.9314 5.9082 78.4305 5.9082C82.3477 5.9082 83.7214 8.47427 83.7214 12.0688V12.9944L75.8702 12.9876ZM80.974 10.9898C80.974 9.62242 80.7026 8.12358 78.4322 8.12358C76.2242 8.12358 75.8921 9.64097 75.8921 10.9898V11.1786H80.9773L80.974 10.9898Z" fill="#171923"></path> <path d="M47.2854 8.40577V6.18196H44.4318V1.66016H41.6827V6.18196H35.1867C32.0635 6.18196 30.501 7.02495 30.501 9.39882C30.501 11.2281 31.5207 11.9396 33.7288 12.823L34.6254 13.1805C36.3548 13.8734 36.7088 14.0842 36.7088 14.9036C36.7088 15.7229 36.2503 16.1444 34.5412 16.1444C33.0427 16.1444 31.2713 15.9135 30.6645 15.8713V17.8473C31.1853 18.0159 33.0394 18.3092 34.6625 18.3092C37.9341 18.3092 39.4123 16.9604 39.4123 14.735C39.3921 12.7809 38.5173 11.9817 35.9958 10.9516L35.062 10.5655C33.6259 9.99903 33.2079 10.085 33.2079 9.32801C33.2079 8.48502 33.813 8.36194 35.2306 8.36194C36.252 8.36194 41.6844 8.40072 41.6844 8.40072V14.9187C41.6844 17.3988 42.6013 18.3244 44.9122 18.3244C45.7146 18.3093 46.5122 18.1961 47.2871 17.9872V16.1006C46.95 16.1427 46.1207 16.1849 45.5173 16.1849C44.5161 16.1849 44.4335 15.9742 44.4335 14.8816V8.40577H47.2854Z" fill="#171923"></path> <path d="M23.7877 11.1502V11.1401C23.7877 8.79318 23.4984 6.82283 22.9197 5.22902C22.5191 4.05248 21.8529 2.98404 20.9729 2.10658C19.5116 0.695411 17.4822 0.000787104 14.8798 0.000787104H8.91134C7.88716 -0.0113985 6.86621 0.117958 5.87741 0.385191C1.95352 1.49794 0 5.0385 0 11.1401V11.1856C0 17.2872 1.95352 20.8277 5.87741 21.9405C6.86621 22.2077 7.88716 22.3371 8.91134 22.3249H14.873C17.4755 22.3249 19.5048 21.6303 20.9662 20.2191C21.8462 19.3416 22.5124 18.2732 22.913 17.0966C23.4917 15.5006 23.781 13.5302 23.781 11.1856V11.1502H23.7877ZM14.4297 19.9443H9.37318C2.98506 19.9443 2.99348 16.0918 2.99348 11.1637C2.99348 6.23555 2.98506 2.38139 9.37318 2.38139H14.4297C20.8179 2.38139 20.8094 6.23386 20.8094 11.1637C20.8094 16.0935 20.8111 19.9443 14.423 19.9443H14.4297Z" fill="#3576ED"></path> <path d="M10.3687 9.95898H10.249V9.98933V12.316V12.3446V12.3649H10.3687H17.4209H17.5423V12.3446V12.3345V12.316V10.0079V9.98933V9.97922V9.95898H17.4209H10.3687Z" fill="#3576ED"></path> <path d="M6.40233 14.6758H6.24221V15.7902V15.8138C6.24132 15.9818 6.27354 16.1483 6.33704 16.3038C6.40053 16.4593 6.49405 16.6007 6.61224 16.7201C6.73043 16.8394 6.87098 16.9342 7.02584 16.9992C7.18071 17.0641 7.34685 17.0979 7.51478 17.0986H16.2711C16.4397 17.099 16.6067 17.066 16.7626 17.0016C16.9184 16.9372 17.06 16.8425 17.179 16.7231C17.2981 16.6036 17.3924 16.4618 17.4564 16.3057C17.5204 16.1497 17.5529 15.9825 17.552 15.8138V14.6808H6.41076L6.40233 14.6758Z" fill="#3576ED"></path> <path d="M16.2711 5.23243H15.6255C15.564 5.23434 15.5026 5.24054 15.4418 5.25097H14.3496V6.51714V7.63158V7.65012H17.5521V6.51714C17.553 6.34847 17.5205 6.18128 17.4565 6.02523C17.3925 5.86918 17.2982 5.72735 17.1791 5.60792C17.06 5.48849 16.9185 5.39382 16.7626 5.32937C16.6068 5.26493 16.4397 5.23198 16.2711 5.23243Z" fill="#3576ED"></path> </svg>