<svg width="110" height="30" viewBox="0 0 88 23" fill="none" xmlns="http://www.w3.org/2000/svg"> <path d="M55.4157 17.4252V16.1992C54.0848 16.9295 52.8342 17.4164 51.5434 17.4164C48.6235 17.4252 48.1875 15.2988 48.1875 12.9554V5.69336H50.7891V12.9554C50.7891 14.5832 51.0759 15.1639 52.3982 15.1639C53.1554 15.1639 54.1192 14.8706 55.3182 14.3955V5.69336H57.9398V17.4252H55.4157Z" fill="black"></path> <path d="M67.7418 17.4222V16.5101C66.7723 17.1155 65.6566 17.4315 64.5206 17.4222C61.8273 17.4222 60.2354 15.7563 60.2354 12.1958V10.5299C60.2354 6.42389 62.2432 5.13929 65.1976 5.13929C65.9972 5.13958 66.7951 5.21517 67.5811 5.36512V0.998047H70.2745V17.4222H67.7418ZM67.5984 7.63518C66.8879 7.51457 66.17 7.44499 65.45 7.42694C63.8265 7.42694 62.9316 7.8962 62.9316 10.5358V12.2017C62.9316 14.2958 63.6028 15.1052 65.275 15.1052C66.0769 15.0956 66.8684 14.919 67.6012 14.5861L67.5984 7.63518Z" fill="black"></path> <path d="M72.5693 17.4252V5.69336H74.864V17.4252H72.5693Z" fill="black"></path> <path d="M82.4649 17.4218C79.2237 17.4218 77.4453 15.7148 77.4453 12.0984V10.6994C77.4453 7.10936 79.2237 5.39648 82.4649 5.39648C85.7061 5.39648 87.4845 7.10936 87.4845 10.6994V12.1013C87.4845 15.7148 85.7061 17.4218 82.4649 17.4218ZM84.903 10.6994C84.903 8.50547 84.1744 7.69009 82.4735 7.69009C80.7726 7.69009 80.0268 8.5084 80.0268 10.6994V12.1013C80.0268 14.2952 80.7582 15.1282 82.4591 15.1282C84.1601 15.1282 84.903 14.2952 84.903 12.1013V10.6994Z" fill="black"></path> <path d="M45.8934 7.64699V5.44729H43.114V0.998047H40.4436V5.44729H34.1333C31.0642 5.44729 29.5439 6.27731 29.5439 8.62365C29.5439 10.4245 30.5393 11.1196 32.6991 11.9936L33.5596 12.3367C35.2433 13.0318 35.5674 13.2342 35.5674 14.0466C35.5674 14.8591 35.1229 15.2697 33.4592 15.2697C31.9964 15.2697 30.2725 15.0409 29.6845 14.9998V16.9473C30.9622 17.2474 32.2687 17.3999 33.5797 17.4019C36.7664 17.4019 38.2063 16.0703 38.2063 13.8824C38.1862 11.9584 37.3458 11.1694 34.879 10.1546L33.9669 9.78216C32.5643 9.22197 32.157 9.30702 32.157 8.56206C32.157 7.72911 32.7307 7.61179 34.1304 7.61179C35.1257 7.61179 40.4178 7.64992 40.4178 7.64992V14.0642C40.4178 16.5103 41.3099 17.4224 43.573 17.4224C44.357 17.409 45.1364 17.2967 45.8934 17.0881V15.2315C45.5665 15.2726 44.7461 15.3137 44.1724 15.3137C43.1972 15.3137 43.1169 15.1054 43.1169 14.029V7.64699H45.8934Z" fill="black"></path> <path d="M74.864 0.998047H72.5693V3.63779H74.864V0.998047Z" fill="black"></path> <path d="M12.9077 16.5586V16.7199H10.3262V9.97461H12.9077V16.5586Z" fill="#3576ED"></path> <path d="M14.6289 12.1504V12.3206H16.9236V6.62458C16.9344 6.27965 16.8109 5.94442 16.5802 5.69254C16.3494 5.44066 16.0304 5.29273 15.6931 5.28125H14.6289V12.1504Z" fill="#3576ED"></path> <path d="M6.02344 6.62458V12.3206H8.03128V5.28125H7.10193C6.50532 5.28125 6.02344 5.88252 6.02344 6.62458Z" fill="#3576ED"></path> <path d="M12.9077 8.05607V8.21446H10.3262V5.28125H12.9077V8.05607Z" fill="#3576ED"></path> <path d="M14.6289 16.5763V16.7201H15.6931C16.003 16.7345 16.3059 16.6234 16.5363 16.4109C16.7666 16.1984 16.9058 15.9016 16.9236 15.5849V14.0801H14.6289V16.5763Z" fill="#3576ED"></path> <path d="M7.23961 14.0801H6.02344V15.5848C6.03977 15.9015 6.17809 16.1988 6.40815 16.4115C6.6382 16.6242 6.94128 16.7351 7.25109 16.7199H8.31811V14.0801H7.23961Z" fill="#3576ED"></path> <path d="M23.2335 11.1459C23.2335 8.79957 22.9466 6.8306 22.373 5.23901C21.9883 4.05947 21.3412 2.98725 20.4827 2.10665C19.0572 0.695915 17.0723 0.000813799 14.5281 0.000813799H8.70538C7.70322 -0.0115832 6.7042 0.117711 5.73666 0.385026C1.91031 1.4966 0 5.03663 0 11.1459V11.1723C0 17.2581 1.91031 20.7952 5.73666 21.9068C6.7042 22.1741 7.70322 22.3034 8.70538 22.291H14.5281C17.0723 22.291 19.0572 21.5959 20.4827 20.1852C21.3396 19.309 21.9866 18.2419 22.373 17.0675C22.9466 15.4661 23.2335 13.4971 23.2335 11.1606V11.1459ZM14.0921 19.9447H9.14424C2.89128 19.9447 2.91135 16.0761 2.91135 11.1459C2.91135 6.21567 2.89701 2.36181 9.14424 2.36181H14.0921C20.3451 2.36181 20.325 6.21567 20.325 11.1606C20.325 16.1055 20.3365 19.9447 14.0921 19.9447Z" fill="#3576ED"></path> </svg>